<?xml version="1.0" encoding="iso-8859-1"?>
<!-- Generator: Adobe Illustrator 19.0.0, SVG Export Plug-In . SVG Version: 6.00 Build 0)  -->
<svg version="1.1" id="Layer_1" xmlns="http://www.w3.org/2000/svg" xmlns:xlink="http://www.w3.org/1999/xlink" x="0px" y="0px"
	 viewBox="0 0 505 505" style="enable-background:new 0 0 505 505;" xml:space="preserve">
<g>
	<polygon style="fill:#00C37A;" points="497.5,351 279.5,351 279.5,277.5 379.5,277.5 379.5,302.5 444.5,252.5 379.5,202.5 
		379.5,227.5 279.5,227.5 279.5,154 497.5,154 	"/>
	<path style="fill:#60DC4D;" d="M375.252,331l102.05-78.5L375.252,174H477.5v157H375.252z M299.5,331v-33.5h60V331H299.5z
		 M299.5,207.5V174h60v33.5H299.5z"/>
	<polygon style="fill:#00C37A;" points="7.5,351 225.5,351 225.5,277.5 125.5,277.5 125.5,302.5 60.5,252.5 125.5,202.5 
		125.5,227.5 225.5,227.5 225.5,154 7.5,154 	"/>
	<path style="fill:#60DC4D;" d="M145.5,331v-33.5h60V331H145.5z M27.5,331V174h102.248l-102.05,78.5l102.05,78.5H27.5z M145.5,207.5
		V174h60v33.5H145.5z"/>
	<g>
		<polygon style="fill:#FFFFFF;" points="45,203.5 30,203.5 30,176.5 67.5,176.5 67.5,191.5 45,191.5 		"/>
		<rect x="30" y="216" style="fill:#FFFFFF;" width="15" height="15"/>
	</g>
	<g>
		<polygon style="fill:#FFFFFF;" points="475,203.5 460,203.5 460,191.5 437.5,191.5 437.5,176.5 475,176.5 		"/>
		<rect x="460" y="216" style="fill:#FFFFFF;" width="15" height="15"/>
	</g>
	<g>
		<path d="M0,358.5h233V270H118v17.269L72.801,252.5L118,217.731V235h115v-88.5H0V358.5z M15,161.5h203V220h-85v-32.731
			L48.199,252.5L133,317.731V285h85v58.5H15V161.5z"/>
		<rect x="126.5" y="243" width="15" height="15"/>
		<rect x="156.5" y="243" width="15" height="15"/>
		<rect x="186.5" y="243" width="15" height="15"/>
		<rect x="216.5" y="243" width="15" height="15"/>
		<rect x="336.5" y="243" width="15" height="15"/>
		<rect x="366.5" y="243" width="15" height="15"/>
		<rect x="306.5" y="243" width="15" height="15"/>
		<rect x="276.5" y="243" width="15" height="15"/>
		<rect x="246.5" y="243" width="15" height="15"/>
		<path d="M272,146.5V235h115v-17.269l45.199,34.769L387,287.269V270H272v88.5h233v-212H272z M490,343.5H287V285h85v32.731
			l84.801-65.231L372,187.269V220h-85v-58.5h203V343.5z"/>
	</g>
</g>
<g>
</g>
<g>
</g>
<g>
</g>
<g>
</g>
<g>
</g>
<g>
</g>
<g>
</g>
<g>
</g>
<g>
</g>
<g>
</g>
<g>
</g>
<g>
</g>
<g>
</g>
<g>
</g>
<g>
</g>
</svg>
