<?xml version="1.0" encoding="iso-8859-1"?>
<!-- Generator: Adobe Illustrator 19.0.0, SVG Export Plug-In . SVG Version: 6.00 Build 0)  -->
<svg version="1.1" id="Layer_1" xmlns="http://www.w3.org/2000/svg" xmlns:xlink="http://www.w3.org/1999/xlink" x="0px" y="0px"
	 viewBox="0 0 505 505" style="enable-background:new 0 0 505 505;" xml:space="preserve">
<g>
	<polygon style="fill:#FDD93B;" points="36.75,72.5 36.75,497.5 368.25,497.5 468.25,397.5 468.25,72.5 	"/>
	<path style="fill:#FFFFFF;" d="M445.75,152.5h-15V136h15V152.5z M445.75,121h-15v-11h-58V95h73V121z"/>
	<rect x="36.75" y="7.5" style="fill:#BD8A53;" width="431.5" height="65"/>
	<rect x="36.75" y="72.5" style="fill:#F5A800;" width="431.5" height="20"/>
	<polygon style="fill:#F5A800;" points="348.25,377.5 348.25,497.5 368.25,497.5 468.25,397.5 468.25,377.5 	"/>
	<polygon style="fill:#FDD93B;" points="368.25,397.5 368.25,497.5 468.25,397.5 	"/>
	<rect x="36.75" y="52.5" style="fill:#AA6D3B;" width="431.5" height="20"/>
	<g>
		<path d="M29.25,0v65v15v425h342.106L475.75,400.606V80V65V0H29.25z M44.25,80h69.5v410h-69.5V80z M375.75,479.394V405h74.394
			L375.75,479.394z M460.75,390h-100v100h-232V80h332V390z M44.25,65V15h416.5v50H44.25z"/>
		<rect x="63.75" y="168" width="32" height="15"/>
		<rect x="63.75" y="223.75" width="32" height="15"/>
		<rect x="63.75" y="279.5" width="32" height="15"/>
		<rect x="63.75" y="335.25" width="32" height="15"/>
		<rect x="63.75" y="391" width="32" height="15"/>
		<rect x="145.25" y="168" width="285.5" height="15"/>
		<rect x="145.25" y="223.75" width="285.5" height="15"/>
		<rect x="145.25" y="279.5" width="285.5" height="15"/>
		<rect x="145.25" y="335.25" width="285.5" height="15"/>
		<rect x="145.25" y="391" width="198.5" height="15"/>
		<rect x="243.25" y="33" width="15" height="15"/>
		<rect x="198.25" y="33" width="15" height="15"/>
		<rect x="288.25" y="33" width="15" height="15"/>
		<rect x="153.25" y="33" width="15" height="15"/>
		<rect x="63.25" y="33" width="15" height="15"/>
		<rect x="108.25" y="33" width="15" height="15"/>
		<rect x="333.25" y="33" width="15" height="15"/>
		<rect x="378.25" y="33" width="15" height="15"/>
		<rect x="423.25" y="33" width="15" height="15"/>
	</g>
</g>
<g>
</g>
<g>
</g>
<g>
</g>
<g>
</g>
<g>
</g>
<g>
</g>
<g>
</g>
<g>
</g>
<g>
</g>
<g>
</g>
<g>
</g>
<g>
</g>
<g>
</g>
<g>
</g>
<g>
</g>
</svg>
