<?xml version="1.0" encoding="iso-8859-1"?>
<!-- Generator: Adobe Illustrator 19.0.0, SVG Export Plug-In . SVG Version: 6.00 Build 0)  -->
<svg version="1.1" id="Layer_1" xmlns="http://www.w3.org/2000/svg" xmlns:xlink="http://www.w3.org/1999/xlink" x="0px" y="0px"
	 viewBox="0 0 506.617 506.617" style="enable-background:new 0 0 506.617 506.617;" xml:space="preserve">
<g>
	<path style="fill:#E2324E;" d="M455.149,298.859c57.801-53.586,55.286-146.37-0.513-202.169
		c-55.625-55.625-145.591-55.961-201.643-1.026c-0.004-0.004-0.009-0.009-0.013-0.013c-55.973-55.973-146.722-55.973-202.695,0
		s-58.111,148.946,0,202.695c48.821,45.156,202.175,152.946,202.175,152.946S406.37,344.081,455.149,298.859z"/>
	<path style="fill:#FFFFFF;" d="M43.362,199.442h-15c0-5.45,0.364-10.93,1.082-16.287l14.867,1.993
		C43.682,189.847,43.362,194.656,43.362,199.442z M47.084,171.436l-14.473-3.943c5.476-20.095,16.244-38.591,31.14-53.488
		c23.559-23.558,56.396-36.81,89.663-36.172l-0.287,14.997c-29.229-0.567-58.071,11.083-78.769,31.781
		C61.306,137.664,51.874,153.856,47.084,171.436z"/>
	<path style="fill:#A00B3F;" d="M495.957,179.084c-4.314,29-17.761,56.598-40.808,77.964c-5.79,5.368-13.074,11.616-21.393,18.447
		L393,202.482l-43.41,77.768l-86.09,14.105l57.479,66.408c-38.084,27.518-68.519,48.719-68.519,48.719
		S99.107,301.692,50.285,256.535c-23.299-21.55-36.903-49.406-41.245-78.653c-6.35,43.371,6.954,88.746,41.245,120.463
		c48.821,45.156,202.175,152.947,202.175,152.947S406.37,344.081,455.149,298.859C489.157,267.331,502.276,222.234,495.957,179.084z
		"/>
	<g>
		<g>
			<polygon style="fill:#FDD93B;" points="393,237.482 423.129,298.53 490.5,308.32 441.75,355.839 453.259,422.938 393,391.258 
				332.742,422.938 344.25,355.839 295.5,308.32 362.871,298.53 			"/>
		</g>
		<polygon style="fill:#F5A800;" points="393,370.258 336.701,399.857 332.742,422.938 393,391.258 453.258,422.938 449.3,399.857 
					"/>
	</g>
	<g>
		<path d="M252.481,442.127C227.301,424.322,98.725,332.932,55.378,292.84c-25.33-23.429-39.661-55.86-40.353-91.321
			c-0.729-37.403,14.056-74.057,40.563-100.564c52.911-52.91,138.969-52.962,191.938-0.149l5.092,5.728l5.624-5.512
			c52.942-51.888,138.667-51.45,191.089,0.973c48.604,48.604,54.321,126.866,13.018,178.171l11.684,9.406
			c22.424-27.854,33.275-63.589,30.554-100.623c-2.707-36.829-18.563-71.476-44.647-97.561
			c-28.297-28.296-65.917-43.983-105.93-44.17c-0.242-0.001-0.482-0.001-0.724-0.001c-37.289,0-72.584,13.474-100.24,38.134
			c-27.812-25.318-63.548-39.178-101.413-39.178c-40.287,0-78.163,15.688-106.651,44.176
			C15.606,119.724-0.779,160.351,0.029,201.811C0.8,241.389,16.84,277.627,45.193,303.851
			c48.631,44.98,196.677,149.164,202.956,153.577l4.293,3.018l4.307-3c0.274-0.191,27.868-19.423,62.866-44.639l-8.768-12.17
			C284.014,419.97,261.553,435.77,252.481,442.127z"/>
		<path d="M506.617,303.083l-78.508-11.408L393,220.535l-35.109,71.14l-78.508,11.408l56.809,55.375l-13.411,78.19L393,399.731
			l70.22,36.917l-13.411-78.19L506.617,303.083z M393,382.785l-50.298,26.443l9.606-56.007l-40.691-39.665l56.234-8.171L393,254.429
			l25.148,50.957l56.234,8.171l-40.691,39.665l9.606,56.007L393,382.785z"/>
		<rect x="313.5" y="247.982" width="15" height="15"/>
		<rect x="440.5" y="247.982" width="15" height="15"/>
		<rect x="293.5" y="358.982" width="15" height="15"/>
		<polygon points="398,312.482 383,312.482 383,327.982 367.5,327.982 367.5,342.982 383,342.982 383,358.482 398,358.482 
			398,342.982 413.5,342.982 413.5,327.982 398,327.982 		"/>
	</g>
</g>
<g>
</g>
<g>
</g>
<g>
</g>
<g>
</g>
<g>
</g>
<g>
</g>
<g>
</g>
<g>
</g>
<g>
</g>
<g>
</g>
<g>
</g>
<g>
</g>
<g>
</g>
<g>
</g>
<g>
</g>
</svg>
