<?xml version="1.0" encoding="iso-8859-1"?>
<!-- Generator: Adobe Illustrator 19.0.0, SVG Export Plug-In . SVG Version: 6.00 Build 0)  -->
<svg version="1.1" id="Layer_1" xmlns="http://www.w3.org/2000/svg" xmlns:xlink="http://www.w3.org/1999/xlink" x="0px" y="0px"
	 viewBox="0 0 509.718 509.718" style="enable-background:new 0 0 509.718 509.718;" xml:space="preserve">
<g>
	<path style="fill:#D8D7DA;" d="M12.78,496.777L12.78,496.777l230.005-243.263l21.213,21.213L65.111,486.918
		C51.353,500.649,30.592,504.56,12.78,496.777z"/>
	<path style="fill:#00E2F0;" d="M353.094,235.129l91.924-106.066l0,0c9.763,9.763,25.592,9.763,35.355,0l18.738-18.738
		l-98.288-98.288l-18.738,18.738c-9.763,9.763-9.763,25.592,0,35.355v0l-106.066,91.924l0,0c-19.526-19.526-51.184-19.526-70.711,0
		l-28.284,28.284L324.81,334.124l28.284-28.284C372.62,286.313,372.62,254.655,353.094,235.129L353.094,235.129z"/>
	<polygon style="fill:#00C6DA;" points="353.094,235.129 353.094,235.129 445.018,129.063 445.018,129.063 382.085,66.13 
		382.085,66.13 276.019,158.054 276.019,158.054 	"/>
	<polygon style="fill:#ACABB1;" points="243.412,295.152 263.998,274.727 242.785,253.514 222.207,273.948 	"/>
	<path style="fill:#FFFFFF;" d="M445.808,102.037l-12.28-12.281l10.607-10.606l12.28,12.281L445.808,102.037z M422.92,79.15
		l-31.112-31.113l10.607-10.606l31.112,31.113L422.92,79.15z"/>
	<g>
		<path d="M400.823,1.43l-24.042,24.042c-10.724,10.724-12.371,27.141-4.943,39.615l-95.775,83.006
			c-22.541-17.633-55.315-16.082-76.058,4.659l-22.98,22.981l-8.839-8.839L157.578,177.5l75.434,75.434L0,499.377l9.777,4.272
			c7.14,3.12,14.634,4.638,22.049,4.638c14.169,0,28.046-5.545,38.583-16.062l194.447-207.448l68.791,68.791l10.607-10.606
			l-8.839-8.839l22.981-22.981c10.86-10.86,16.841-25.3,16.841-40.659c0-12.996-4.282-25.334-12.18-35.402l82.996-95.765
			c4.979,2.978,10.688,4.568,16.641,4.568c8.682,0,16.843-3.381,22.981-9.519l24.041-24.042L400.823,1.43z M59.729,481.693
			c-8.901,8.83-21.053,12.796-33.004,11.252l216.211-228.675l10.625,10.625L59.729,481.693z M475.069,123.76
			c-6.821,6.822-17.92,6.823-24.743,0.005L413.11,86.548l-10.607,10.606l32.273,32.274l-82.074,94.702l-47.072-47.072
			l-10.607,10.606l52.778,52.778c8.02,8.026,12.438,18.694,12.438,30.042c0,11.352-4.421,22.025-12.448,30.052l-22.98,22.981
			L187.631,186.338l22.981-22.981c8.027-8.027,18.699-12.448,30.052-12.448s22.024,4.42,30.052,12.448l4.938,4.938l117.43-101.772
			l-5.695-5.696c-6.823-6.823-6.823-17.926,0-24.749l13.435-13.435l87.682,87.681L475.069,123.76z"/>
		<rect x="210.536" y="180.253" transform="matrix(0.7071 -0.7071 0.7071 0.7071 -68.9006 209.1534)" width="15" height="15"/>
		<rect x="231.749" y="201.466" transform="matrix(0.7071 -0.7071 0.7071 0.7071 -77.6876 230.365)" width="15" height="15"/>
		<rect x="274.176" y="243.892" transform="matrix(0.7071 -0.7071 0.7071 0.7071 -95.2611 272.789)" width="15" height="15"/>
		<rect x="295.389" y="265.106" transform="matrix(-0.7071 0.7071 -0.7071 -0.7071 709.8265 251.2108)" width="15" height="15"/>
		<rect x="252.963" y="222.679" transform="matrix(0.707 -0.7072 0.7072 0.707 -86.4715 251.6249)" width="15" height="15"/>
		<rect x="316.248" y="286.465" transform="matrix(-0.7071 0.7071 -0.7071 -0.7071 760.1856 272.072)" width="15" height="14"/>
	</g>
</g>
<g>
</g>
<g>
</g>
<g>
</g>
<g>
</g>
<g>
</g>
<g>
</g>
<g>
</g>
<g>
</g>
<g>
</g>
<g>
</g>
<g>
</g>
<g>
</g>
<g>
</g>
<g>
</g>
<g>
</g>
</svg>
