<?xml version="1.0" encoding="iso-8859-1"?>
<!-- Generator: Adobe Illustrator 19.0.0, SVG Export Plug-In . SVG Version: 6.00 Build 0)  -->
<svg version="1.1" id="Layer_1" xmlns="http://www.w3.org/2000/svg" xmlns:xlink="http://www.w3.org/1999/xlink" x="0px" y="0px"
	 viewBox="0 0 501.294 501.294" style="enable-background:new 0 0 501.294 501.294;" xml:space="preserve">
<g>
	<path style="fill:#FFFFFF;" d="M45.838,455.47L45.838,455.47c-51.099-51.099-51.099-133.947,0-185.046l98.306-98.306
		c51.099-51.099,133.947-51.099,185.046,0l0,0c51.099,51.099,51.099,133.947,0,185.046l-98.306,98.306
		C179.785,506.569,96.937,506.569,45.838,455.47z"/>
	<path style="fill:#D8D7DA;" d="M329.19,172.118L329.19,172.118c-4.21-4.21-8.639-8.065-13.244-11.581
		c42.365,51.401,39.52,127.559-8.548,175.627l-98.306,98.306c-46.889,46.889-120.508,50.745-171.802,11.581
		c2.672,3.241,5.517,6.388,8.548,9.419l0,0c51.099,51.099,133.947,51.099,185.046,0l98.306-98.306
		C380.289,306.065,380.289,223.217,329.19,172.118z"/>
	<path style="fill:#D8D7DA;" d="M315.722,368.188l-59.811-59.811l31.906-31.906c8.411-8.411,13.044-19.595,13.044-31.49
		s-4.633-23.079-13.044-31.49s-19.595-13.044-31.49-13.044c-11.895,0-23.079,4.633-31.49,13.044l-31.907,31.907l-62.255-62.255
		l-10.606,10.606l62.255,62.255l-10.688,10.688c-17.364,17.364-17.364,45.617,0,62.98c8.411,8.412,19.595,13.044,31.49,13.044
		c11.895,0,23.079-4.632,31.49-13.044l10.688-10.688l59.811,59.811L315.722,368.188z"/>
	<g>
		<path style="fill:#60DC4D;" d="M185.779,315.529L185.779,315.529c-9.581-9.581-9.581-25.115,0-34.696l53.201-53.201
			c9.581-9.581,25.115-9.581,34.696,0l0,0c9.581,9.581,9.581,25.115,0,34.696l-53.201,53.201
			C210.894,325.11,195.36,325.11,185.779,315.529z"/>
	</g>
	<path style="fill:#00C37A;" d="M273.676,227.632L273.676,227.632c-1.44-1.44-3.025-2.636-4.694-3.643
		c3.507,8.827,1.697,19.276-5.446,26.418l-53.201,53.201c-8.141,8.141-20.569,9.338-30.002,3.643
		c1.197,3.013,3.008,5.839,5.446,8.277v0c9.581,9.581,25.115,9.581,34.696,0l53.201-53.201
		C283.257,252.747,283.257,237.213,273.676,227.632z"/>
	<path style="fill:#FFFFFF;" d="M221.026,291.097l-10.606-10.606l9.887-9.887l10.606,10.606L221.026,291.097z M241.52,270.603
		l-10.606-10.606l20.506-20.506l10.606,10.606L241.52,270.603z"/>
	<g>
		<path d="M236.667,126.294c-36.954,0-71.696,14.391-97.826,40.521l-98.306,98.306c-53.941,53.941-53.941,141.711,0,195.652
			c26.13,26.13,60.872,40.521,97.826,40.521c36.954,0,71.696-14.391,97.826-40.521l98.306-98.306
			c26.13-26.13,40.521-60.873,40.521-97.826s-14.391-71.696-40.521-97.826S273.62,126.294,236.667,126.294z M225.581,450.167
			c-23.297,23.297-54.272,36.127-87.219,36.127s-63.922-12.83-87.22-36.127h0c-48.093-48.093-48.093-126.346,0-174.439
			l86.063-86.063l64.324,64.324l-21.355,21.355c-12.49,12.49-12.49,32.813,0,45.303c6.245,6.245,14.448,9.368,22.651,9.368
			c8.203,0,16.406-3.123,22.651-9.368l21.355-21.355l64.812,64.813L225.581,450.167z M214.87,310.04
			c-3.217,3.217-7.495,4.989-12.045,4.989c-4.55,0-8.827-1.771-12.044-4.989s-4.989-7.495-4.989-12.045s1.771-8.828,4.989-12.045
			l53.201-53.201c3.217-3.217,7.495-4.989,12.045-4.989c4.55,0,8.827,1.772,12.044,4.989s4.989,7.495,4.989,12.045
			s-1.771,8.828-4.989,12.045L214.87,310.04z M323.886,351.861l-1.636,1.636l-64.812-64.813l21.239-21.239
			c12.49-12.49,12.49-32.813,0-45.303c-12.49-12.49-32.812-12.491-45.302,0l-21.24,21.24l-64.324-64.324l1.636-1.636
			c23.297-23.297,54.272-36.127,87.219-36.127s63.922,12.83,87.22,36.127s36.127,54.272,36.127,87.22
			S347.184,328.563,323.886,351.861z"/>
		<rect x="396.143" y="85.785" transform="matrix(-0.689 -0.7248 0.7248 -0.689 614.1475 450.1009)" width="15" height="15"/>
		<rect x="374.4" y="106.456" transform="matrix(-0.689 -0.7248 0.7248 -0.689 562.4431 469.2554)" width="15" height="15"/>
		<rect x="352.658" y="127.126" transform="matrix(0.689 0.7248 -0.7248 0.689 209.5763 -219.1577)" width="15" height="15"/>
		<rect x="461.37" y="23.774" transform="matrix(-0.689 -0.7248 0.7248 -0.689 769.2598 392.636)" width="15" height="15"/>
		<rect x="439.627" y="44.444" transform="matrix(0.7247 -0.689 0.689 0.7247 87.2871 322.3808)" width="15" height="15"/>
		<rect x="483.112" y="3.103" transform="matrix(0.689 0.7248 -0.7248 0.689 160.2604 -352.2746)" width="15" height="15"/>
		<rect x="417.885" y="65.115" transform="matrix(0.689 0.7248 -0.7248 0.689 184.9184 -285.7162)" width="15" height="15"/>
		<rect x="287.222" y="64.794" width="15" height="15"/>
		<rect x="287.222" y="94.794" width="15" height="15"/>
		<rect x="287.222" y="4.794" width="15" height="15"/>
		<rect x="287.222" y="34.794" width="15" height="15"/>
		<rect x="452.722" y="224.294" width="15" height="15"/>
		<rect x="482.722" y="224.294" width="15" height="15"/>
		<rect x="422.722" y="224.294" width="15" height="15"/>
		<rect x="392.722" y="224.294" width="15" height="15"/>
	</g>
</g>
<g>
</g>
<g>
</g>
<g>
</g>
<g>
</g>
<g>
</g>
<g>
</g>
<g>
</g>
<g>
</g>
<g>
</g>
<g>
</g>
<g>
</g>
<g>
</g>
<g>
</g>
<g>
</g>
<g>
</g>
</svg>
