<?xml version="1.0" encoding="iso-8859-1"?>
<!-- Generator: Adobe Illustrator 19.0.0, SVG Export Plug-In . SVG Version: 6.00 Build 0)  -->
<svg version="1.1" id="Layer_1" xmlns="http://www.w3.org/2000/svg" xmlns:xlink="http://www.w3.org/1999/xlink" x="0px" y="0px"
	 viewBox="0 0 509.5 509.5" style="enable-background:new 0 0 509.5 509.5;" xml:space="preserve">
<g>
	<path style="fill:#077FD5;" d="M374.25,287.5h-10.605c-12.15,0-22,9.85-22,22v0c0,12.15,9.85,22,22,22h28.95
		c58.861,0,107.452-47.263,107.655-106.123C500.454,166.385,452.694,118.5,393.75,118.5c-0.899,0-1.796,0.012-2.69,0.034
		C369.699,54.036,308.913,7.5,237.25,7.5c-88.414,0-160.276,70.831-161.96,158.842c-37.752,8.034-66.07,41.568-66.04,81.722
		C9.285,294.347,47.642,331.5,93.924,331.5h51.247c12.15,0,22-9.85,22-22v0c0-12.15-9.85-22-22-22H132.25H374.25z"/>
	<path style="fill:#FFFFFF;" d="M150.245,81.038l-10.607-10.605c3.357-3.357,6.915-6.575,10.575-9.563l9.485,11.62
		C156.427,75.16,153.247,78.036,150.245,81.038z M171.138,64.184l-8.109-12.619c22.009-14.144,47.591-21.744,73.981-21.98
		l0.135,14.999C213.588,44.794,190.763,51.572,171.138,64.184z"/>
	<g>
		<path style="fill:#0053C0;" d="M392.594,301.5h-28.949c-6.352,0-12.071-2.695-16.087-7c-3.666,3.93-5.913,9.201-5.913,15
			c0,12.15,9.85,22,22,22h28.949c58.861,0,107.452-47.263,107.655-106.123c0.018-5.239-0.349-10.389-1.062-15.427
			C491.797,261.846,446.507,301.5,392.594,301.5z"/>
		<path style="fill:#0053C0;" d="M145.171,301.5H93.924c-41.218,0-76.123-29.475-83.3-68.615c-0.901,4.923-1.378,9.995-1.374,15.179
			C9.285,294.347,47.642,331.5,93.924,331.5h51.247c12.15,0,22-9.85,22-22c0-5.799-2.247-11.07-5.913-15
			C157.242,298.805,151.523,301.5,145.171,301.5z"/>
		<path style="fill:#0053C0;" d="M331.645,218.5h52.101L254.524,62.259L123.344,218.5h53.827v39h-32c12.15,0,22,9.85,22,22
			c0,2.823-0.538,5.52-1.507,8h177.487c-0.969-2.48-1.507-5.177-1.507-8c0-12.15,9.85-22,22-22h-32V218.5z"/>
	</g>
	<polygon style="fill:#FFFFFF;" points="254.408,93.5 166.25,198.5 197.171,198.5 197.171,509.5 311.645,509.5 311.645,198.5 
		341.25,198.5 	"/>
	<path style="fill:#D8D7DA;" d="M255.75,440.5c-21.547,0-41.638-12.598-58.579-34.339V509.5h114.474V409.491
		C295.282,429.18,276.171,440.5,255.75,440.5z"/>
	<g>
		<polygon points="254.451,81.785 150.16,206 189.671,206 189.671,470.5 204.671,470.5 204.671,191 182.34,191 254.364,105.215 
			325.315,191 304.145,191 304.145,470.5 319.145,470.5 319.145,206 357.186,206 		"/>
		<rect x="304.145" y="484.5" width="15" height="15"/>
		<rect x="189.671" y="484.5" width="15" height="15"/>
		<path d="M474.5,144.53c-20.927-21-48.577-32.836-78.115-33.5C371.941,44.394,308.669,0,237.25,0
			c-44.699,0-86.875,17.248-118.759,48.566C88.028,78.489,70.229,118.02,67.999,160.426c-17.815,5.041-33.878,15.541-45.7,29.981
			C9.032,206.612,1.735,227.09,1.75,248.07C1.788,298.209,43.137,339,93.924,339h51.247c16.267,0,29.5-13.234,29.5-29.5
			s-13.233-29.5-29.5-29.5H132.25v15h12.921c7.995,0,14.5,6.505,14.5,14.5s-6.505,14.5-14.5,14.5H93.924
			c-42.522,0-77.142-34.067-77.174-75.941c-0.027-35.683,25.249-66.964,60.101-74.38l5.824-1.239l0.114-5.953
			C84.387,82.956,153.678,15,237.25,15c66.764,0,125.714,42.555,146.69,105.892l1.749,5.279l5.56-0.14
			c0.831-0.021,1.665-0.032,2.501-0.032c26.509,0,51.413,10.341,70.125,29.119c18.712,18.776,28.966,43.718,28.874,70.232
			C492.562,279.746,447.632,324,392.594,324h-28.949c-7.995,0-14.5-6.505-14.5-14.5s6.505-14.5,14.5-14.5h10.605v-15h-10.605
			c-16.267,0-29.5,13.234-29.5,29.5s13.233,29.5,29.5,29.5h28.949c63.28,0,114.939-50.959,115.155-113.598
			C507.855,194.873,496.047,166.151,474.5,144.53z"/>
		<rect x="391.25" y="280" width="16" height="15"/>
		<rect x="99.25" y="280" width="16" height="15"/>
		<rect x="247.75" y="362.5" width="15" height="15"/>
		<rect x="247.75" y="392.5" width="15" height="15"/>
		<rect x="247.75" y="422.5" width="15" height="15"/>
		<rect x="247.75" y="332.5" width="15" height="15"/>
		<rect x="247.75" y="452.5" width="15" height="15"/>
		<rect x="247.75" y="482.5" width="15" height="15"/>
		<rect x="247.75" y="212.5" width="15" height="15"/>
		<rect x="247.75" y="182.5" width="15" height="15"/>
		<rect x="247.75" y="302.5" width="15" height="15"/>
		<rect x="247.75" y="152.5" width="15" height="15"/>
		<rect x="247.75" y="272.5" width="15" height="15"/>
		<rect x="247.75" y="242.5" width="15" height="15"/>
	</g>
</g>
<g>
</g>
<g>
</g>
<g>
</g>
<g>
</g>
<g>
</g>
<g>
</g>
<g>
</g>
<g>
</g>
<g>
</g>
<g>
</g>
<g>
</g>
<g>
</g>
<g>
</g>
<g>
</g>
<g>
</g>
</svg>
