<?xml version="1.0" encoding="iso-8859-1"?>
<!-- Generator: Adobe Illustrator 19.0.0, SVG Export Plug-In . SVG Version: 6.00 Build 0)  -->
<svg version="1.1" id="Layer_1" xmlns="http://www.w3.org/2000/svg" xmlns:xlink="http://www.w3.org/1999/xlink" x="0px" y="0px"
	 viewBox="0 0 505 505" style="enable-background:new 0 0 505 505;" xml:space="preserve">
<g>
	<path style="fill:#FDD93B;" d="M180.5,56.5H7.5v367c0,13.807,11.193,25,25,25h440c13.807,0,25-11.193,25-25v-330h-276L180.5,56.5z"
		/>
	<path style="fill:#F5A800;" d="M472.5,448.5h-440c-13.807,0-25-11.193-25-25v-312h490v312C497.5,437.307,486.307,448.5,472.5,448.5
		z"/>
	<path style="fill:#BD8A53;" d="M472.5,448.5h-440c-13.807,0-25-11.193-25-25v-287h490v287C497.5,437.307,486.307,448.5,472.5,448.5
		z"/>
	<path style="fill:#AA6D3B;" d="M472.5,417.5h-440c-13.807,0-25-11.193-25-25v31c0,13.807,11.193,25,25,25h440
		c13.807,0,25-11.193,25-25v-31C497.5,406.307,486.307,417.5,472.5,417.5z"/>
	<path style="fill:#FFFFFF;" d="M131.5,91h-15V76h15V91z M101.5,91h-72V76h72V91z"/>
	<g>
		<path d="M224.384,86l-41-37H0v80v294.5C0,441.42,14.579,456,32.5,456h440c17.921,0,32.5-14.58,32.5-32.5V129V86H224.384z
			 M490,423.5c0,9.649-7.851,17.5-17.5,17.5h-440c-9.649,0-17.5-7.851-17.5-17.5V144h475V423.5z M15,129V64h162.616l41,37H490v28H15
			z"/>
		<rect x="30" y="411" width="15" height="15"/>
		<rect x="30" y="221.4" width="15" height="15.8"/>
		<rect x="30" y="379.4" width="15" height="15.8"/>
		<rect x="30" y="253" width="15" height="15.8"/>
		<rect x="30" y="189.8" width="15" height="15.8"/>
		<rect x="30" y="284.6" width="15" height="15.8"/>
		<rect x="30" y="347.8" width="15" height="15.8"/>
		<rect x="30" y="316.2" width="15" height="15.8"/>
		<rect x="30" y="159" width="15" height="15"/>
		<rect x="275.556" y="159" width="15.37" height="15"/>
		<rect x="244.814" y="159" width="15.37" height="15"/>
		<rect x="214.074" y="159" width="15.37" height="15"/>
		<rect x="398.519" y="159" width="15.37" height="15"/>
		<rect x="429.259" y="159" width="15.37" height="15"/>
		<rect x="306.296" y="159" width="15.37" height="15"/>
		<rect x="183.333" y="159" width="15.37" height="15"/>
		<rect x="337.037" y="159" width="15.37" height="15"/>
		<rect x="367.777" y="159" width="15.37" height="15"/>
		<rect x="60.37" y="159" width="15.37" height="15"/>
		<rect x="121.852" y="159" width="15.37" height="15"/>
		<rect x="91.111" y="159" width="15.37" height="15"/>
		<rect x="152.593" y="159" width="15.37" height="15"/>
		<rect x="460" y="159" width="15" height="15"/>
		<rect x="460" y="379.4" width="15" height="15.8"/>
		<rect x="460" y="189.8" width="15" height="15.8"/>
		<rect x="460" y="253" width="15" height="15.8"/>
		<rect x="460" y="316.2" width="15" height="15.8"/>
		<rect x="460" y="347.8" width="15" height="15.8"/>
		<rect x="460" y="221.4" width="15" height="15.8"/>
		<rect x="460" y="284.6" width="15" height="15.8"/>
		<rect x="460" y="411" width="15" height="15"/>
		<rect x="429.26" y="411" width="15.37" height="15"/>
		<rect x="244.815" y="411" width="15.37" height="15"/>
		<rect x="121.853" y="411" width="15.37" height="15"/>
		<rect x="152.593" y="411" width="15.37" height="15"/>
		<rect x="60.371" y="411" width="15.37" height="15"/>
		<rect x="91.111" y="411" width="15.37" height="15"/>
		<rect x="183.334" y="411" width="15.37" height="15"/>
		<rect x="214.074" y="411" width="15.37" height="15"/>
		<rect x="367.778" y="411" width="15.37" height="15"/>
		<rect x="398.519" y="411" width="15.37" height="15"/>
		<rect x="337.037" y="411" width="15.37" height="15"/>
		<rect x="306.297" y="411" width="15.37" height="15"/>
		<rect x="275.556" y="411" width="15.37" height="15"/>
	</g>
</g>
<g>
</g>
<g>
</g>
<g>
</g>
<g>
</g>
<g>
</g>
<g>
</g>
<g>
</g>
<g>
</g>
<g>
</g>
<g>
</g>
<g>
</g>
<g>
</g>
<g>
</g>
<g>
</g>
<g>
</g>
</svg>
