<?xml version="1.0" encoding="iso-8859-1"?>
<!-- Generator: Adobe Illustrator 19.0.0, SVG Export Plug-In . SVG Version: 6.00 Build 0)  -->
<svg version="1.1" id="Layer_1" xmlns="http://www.w3.org/2000/svg" xmlns:xlink="http://www.w3.org/1999/xlink" x="0px" y="0px"
	 viewBox="0 0 505 505" style="enable-background:new 0 0 505 505;" xml:space="preserve">
<g>
	<g>
		<path style="fill:#D8D7DA;" d="M300.5,380.14c-24.853,0-45.5,11.147-45.5,36v62c0-24.853,20.647-36,45.5-36h197v-62H300.5z"/>
		<path style="fill:#D8D7DA;" d="M209.25,380.14H7.5v62h201.75c24.853,0,45.5,11.147,45.5,36v-62
			C254.75,391.287,234.103,380.14,209.25,380.14z"/>
	</g>
	<path style="fill:#D8D7DA;" d="M54.5,321.14v-240h-47v299h202C110.5,380.14,54.5,321.14,54.5,321.14z"/>
	<path style="fill:#ACABB1;" d="M300.5,409.14c-24.853,0-45.625,11.147-45.625,36c0-24.853-20.772-36-45.625-36H7.5v33h201.75
		c24.853,0,45.625,11.147,45.625,36c0-24.853,20.772-36,45.625-36h197v-33H300.5z"/>
	<g>
		<path style="fill:#FFFFFF;" d="M299.5,81.14c-24.853,0-45,10.147-45,35c0-12.427-5.037-21.176-13.18-26.82
			c-1.018-0.705-2.084-1.362-3.196-1.972c-2.222-1.219-4.624-2.248-7.174-3.097s-5.25-1.516-8.068-2.012
			c-1.409-0.248-2.848-0.453-4.313-0.616c-2.929-0.326-5.962-0.485-9.069-0.485c-87,0-155-41-155-41v281c0,0,56,59,155,59
			c17.863,0,33.553,5.759,40.966,18.226c2.901,4.879,4.534,10.784,4.534,17.774l0,0l0,0c0-24.853,20.647-36,45.5-36h197v-299H299.5z
			"/>
		<path style="fill:#D8D7DA;" d="M278.5,383.646V84.112c-14.271,4.599-24,14.761-24,32.028c0-12.427-5.037-21.176-13.18-26.82
			c-1.018-0.705-2.084-1.362-3.196-1.972c-2.222-1.219-4.624-2.248-7.174-3.097c-0.148-0.049-0.301-0.092-0.45-0.14v299.194
			c8.63,2.908,15.684,7.858,19.966,15.06c2.901,4.879,4.534,10.784,4.534,17.774C255,399.23,264.563,388.672,278.5,383.646z"/>
	</g>
	<g>
		<rect x="247" y="227.14" width="15" height="15"/>
		<rect x="247" y="197.14" width="15" height="15"/>
		<rect x="247" y="167.14" width="15" height="15"/>
		<rect x="247" y="317.14" width="15" height="15"/>
		<rect x="247" y="287.14" width="15" height="15"/>
		<rect x="247" y="257.14" width="15" height="15"/>
		<rect x="247" y="347.14" width="15" height="15"/>
		<rect x="247" y="137.14" width="15" height="15"/>
		<path d="M299.5,73.64c-20.903,0-36.449,6.422-45,17.943c-0.059-0.08-0.127-0.154-0.187-0.234
			c-0.412-0.546-0.841-1.079-1.285-1.602c-0.088-0.104-0.17-0.212-0.259-0.315c-0.536-0.617-1.097-1.214-1.677-1.797
			c-0.163-0.163-0.334-0.32-0.5-0.481c-0.433-0.419-0.875-0.831-1.331-1.232c-0.214-0.188-0.432-0.374-0.651-0.558
			c-0.451-0.379-0.914-0.747-1.386-1.109c-0.209-0.16-0.414-0.323-0.627-0.479c-0.68-0.5-1.376-0.986-2.098-1.451
			c-0.042-0.027-0.087-0.052-0.13-0.079c-0.685-0.437-1.392-0.856-2.114-1.262c-0.248-0.139-0.503-0.272-0.755-0.407
			c-0.541-0.29-1.09-0.573-1.651-0.846c-0.282-0.137-0.565-0.274-0.852-0.406c-0.6-0.278-1.214-0.544-1.835-0.803
			c-0.237-0.098-0.468-0.202-0.708-0.297c-0.857-0.341-1.732-0.666-2.628-0.97c-0.193-0.065-0.393-0.123-0.588-0.187
			c-0.72-0.236-1.45-0.462-2.194-0.674c-0.319-0.091-0.643-0.177-0.967-0.263c-0.659-0.176-1.327-0.343-2.003-0.501
			c-0.329-0.077-0.658-0.155-0.991-0.227c-0.801-0.174-1.616-0.334-2.442-0.482c-0.202-0.036-0.399-0.079-0.602-0.114
			c-1.026-0.176-2.073-0.33-3.136-0.466c-0.295-0.038-0.597-0.067-0.894-0.102c-0.792-0.093-1.592-0.176-2.403-0.247
			c-0.376-0.033-0.756-0.062-1.136-0.09c-0.79-0.058-1.59-0.106-2.398-0.144c-0.354-0.017-0.704-0.037-1.061-0.05
			c-1.154-0.041-2.321-0.068-3.51-0.068c-83.754,0-150.467-39.526-151.127-39.923L47,26.86v297.272l2.06,2.17
			c0.604,0.636,15.096,15.75,42.154,30.883c9.137,5.11,20.426,10.579,33.663,15.454H15v-284h14.5v-15H0v306.5v7.5v62h209.5
			c11.425,0,38,2.777,38,28.5h15c0-25.723,26.574-28.5,38-28.5H505v-62v-15v-299H299.5z M209.5,434.64H15v-18h146.5v-15H15v-14
			h194.5c10.517,0,33.853,2.368,37.5,22.804v35.1c-0.362-0.275-0.703-0.565-1.077-0.832
			C236.678,438.123,224.083,434.64,209.5,434.64z M490,401.64H347.5v15H490v18H300.5c-14.583,0-27.178,3.483-36.423,10.073
			c-0.721,0.514-1.402,1.057-2.077,1.604V416.14h0.5c0-25.723,26.574-28.5,38-28.5H490V401.64z M300.5,372.64
			c-14.583,0-27.178,3.483-36.423,10.073c-0.81,0.577-1.582,1.183-2.334,1.802c-0.224,0.185-0.44,0.375-0.659,0.563
			c-0.542,0.466-1.068,0.942-1.579,1.43c-0.208,0.199-0.419,0.397-0.622,0.599c-0.641,0.64-1.262,1.294-1.85,1.97
			c-0.032,0.037-0.067,0.071-0.099,0.108c-0.617,0.714-1.195,1.453-1.753,2.205c-0.057,0.078-0.124,0.149-0.18,0.227
			c-0.056-0.077-0.122-0.148-0.179-0.225c-0.558-0.753-1.137-1.493-1.755-2.207c-0.031-0.036-0.066-0.07-0.097-0.106
			c-0.589-0.676-1.21-1.331-1.852-1.971c-0.203-0.203-0.414-0.4-0.622-0.599c-0.511-0.488-1.038-0.965-1.58-1.431
			c-0.219-0.188-0.434-0.377-0.658-0.561c-0.753-0.62-1.525-1.226-2.335-1.803c-9.245-6.59-21.84-10.073-36.423-10.073
			c-49.252,0-87.242-15.364-110.438-28.252C79.394,333.459,66.709,322.402,62,317.982V52.729
			C85.193,64.451,141.316,88.64,209.5,88.64c14.005,0,37.5,3.573,37.5,27.5h15c0-23.927,23.495-27.5,37.5-27.5H490v284H300.5z"/>
		<rect x="309.5" y="126.64" width="144" height="15"/>
		<rect x="309.5" y="157.64" width="144" height="15"/>
		<rect x="309.5" y="198.64" width="144" height="15"/>
		<rect x="309.5" y="238.64" width="144" height="15"/>
		<rect x="309.5" y="278.64" width="144" height="15"/>
		<rect x="309.5" y="318.64" width="70" height="15"/>
	</g>
</g>
<g>
</g>
<g>
</g>
<g>
</g>
<g>
</g>
<g>
</g>
<g>
</g>
<g>
</g>
<g>
</g>
<g>
</g>
<g>
</g>
<g>
</g>
<g>
</g>
<g>
</g>
<g>
</g>
<g>
</g>
</svg>
