<?xml version="1.0" encoding="iso-8859-1"?>
<!-- Generator: Adobe Illustrator 19.0.0, SVG Export Plug-In . SVG Version: 6.00 Build 0)  -->
<svg version="1.1" id="Layer_1" xmlns="http://www.w3.org/2000/svg" xmlns:xlink="http://www.w3.org/1999/xlink" x="0px" y="0px"
	 viewBox="0 0 505 505" style="enable-background:new 0 0 505 505;" xml:space="preserve">
<g>
	<rect x="7.5" y="75" style="fill:#FFFFFF;" width="490" height="355"/>
	<rect x="37.5" y="105" style="fill:#00E2F0;" width="430" height="295"/>
	<polygon style="fill:#00C6DA;" points="353.607,221.605 216.731,274.837 185.828,224.423 37.5,340.596 37.5,400 467.5,400 
		467.5,336.572 	"/>
	<g>
		<polygon style="fill:#00C37A;" points="208.411,299.532 180.5,254 37.5,366 		"/>
		<polygon style="fill:#60DC4D;" points="348.631,245 37.5,366 37.5,400 467.5,400 467.5,366 468.5,366 		"/>
		<rect x="37.5" y="366" style="fill:#00C37A;" width="430" height="34"/>
	</g>
	<g>
		<circle style="fill:#FDD93B;" cx="227.5" cy="170" r="36"/>
	</g>
	<path style="fill:#F5A800;" d="M227.5,189c-16.953,0-31.16-11.721-34.981-27.5c-0.66,2.726-1.019,5.571-1.019,8.5
		c0,19.882,16.118,36,36,36s36-16.118,36-36c0-2.929-0.358-5.774-1.019-8.5C258.66,177.279,244.453,189,227.5,189z"/>
	<path style="fill:#FFFFFF;" d="M148.5,171h-18c-8.284,0-15-6.716-15-15s-6.716-15-15-15h-63v30h32c8.284,0,15,6.716,15,15
		s6.716,15,15,15h49c8.284,0,15-6.716,15-15S156.784,171,148.5,171z"/>
	<path style="fill:#FFFFFF;" d="M467.5,171h-32c-8.284,0-15-6.716-15-15s-6.716-15-15-15h-99c-8.284,0-15,6.716-15,15
		s6.716,15,15,15h68c8.284,0,15,6.716,15,15s6.716,15,15,15h63V171z"/>
	<path style="fill:#FFFFFF;" d="M218.072,334.045l-5.145-14.091l13.458-4.913l5.145,14.091L218.072,334.045z M245.62,323.988
		l-5.145-14.091l70.452-25.721l5.145,14.091L245.62,323.988z"/>
	<g>
		<path d="M0,67.5v370h505v-370H0z M490,422.5H15v-340h475V422.5z"/>
		<rect x="167.009" y="305.272" transform="matrix(-0.3625 -0.932 0.932 -0.3625 -53.7343 588.7891)" width="15.001" height="15"/>
		<rect x="111.09" y="327.02" transform="matrix(-0.3625 -0.932 0.932 -0.3625 -150.1928 566.303)" width="15.001" height="15"/>
		<rect x="139.05" y="316.146" transform="matrix(-0.3624 -0.932 0.932 -0.3624 -101.9943 577.5159)" width="15" height="15"/>
		<path d="M227.5,213.5c23.986,0,43.5-19.514,43.5-43.5s-19.514-43.5-43.5-43.5S184,146.014,184,170S203.514,213.5,227.5,213.5z
			 M227.5,141.5c15.715,0,28.5,12.785,28.5,28.5s-12.785,28.5-28.5,28.5S199,185.715,199,170S211.785,141.5,227.5,141.5z"/>
		<path d="M77,186c0,12.407,10.094,22.5,22.5,22.5h49c12.406,0,22.5-10.093,22.5-22.5s-10.094-22.5-22.5-22.5h-18
			c-4.136,0-7.5-3.364-7.5-7.5c0-12.407-10.094-22.5-22.5-22.5h-44v15h44c4.136,0,7.5,3.364,7.5,7.5c0,12.407,10.094,22.5,22.5,22.5
			h18c4.136,0,7.5,3.364,7.5,7.5s-3.364,7.5-7.5,7.5h-49c-4.136,0-7.5-3.364-7.5-7.5c0-12.407-10.094-22.5-22.5-22.5h-13v15h13
			C73.636,178.5,77,181.864,77,186z"/>
		<path d="M306.5,178.5h68c4.136,0,7.5,3.364,7.5,7.5c0,12.407,10.094,22.5,22.5,22.5h44v-15h-44c-4.136,0-7.5-3.364-7.5-7.5
			c0-12.407-10.094-22.5-22.5-22.5h-68c-4.136,0-7.5-3.364-7.5-7.5s3.364-7.5,7.5-7.5h99c4.136,0,7.5,3.364,7.5,7.5
			c0,12.407,10.094,22.5,22.5,22.5h13v-15h-13c-4.136,0-7.5-3.364-7.5-7.5c0-12.407-10.094-22.5-22.5-22.5h-99
			c-12.406,0-22.5,10.093-22.5,22.5S294.094,178.5,306.5,178.5z"/>
		<path d="M475,97.5H30v310h445V97.5z M460,112.5v234.263L350.497,236.227l-138.966,54.044l-29.033-47.363L45,350.599V112.5H460z
			 M45,392.5v-22.847l133.502-104.562l26.789,43.702l141.474-55.02L460,368.077V392.5H45z"/>
	</g>
</g>
<g>
</g>
<g>
</g>
<g>
</g>
<g>
</g>
<g>
</g>
<g>
</g>
<g>
</g>
<g>
</g>
<g>
</g>
<g>
</g>
<g>
</g>
<g>
</g>
<g>
</g>
<g>
</g>
<g>
</g>
</svg>
