<?xml version="1.0" encoding="iso-8859-1"?>
<!-- Generator: Adobe Illustrator 19.0.0, SVG Export Plug-In . SVG Version: 6.00 Build 0)  -->
<svg version="1.1" id="Layer_1" xmlns="http://www.w3.org/2000/svg" xmlns:xlink="http://www.w3.org/1999/xlink" x="0px" y="0px"
	 viewBox="0 0 505 505" style="enable-background:new 0 0 505 505;" xml:space="preserve">
<g>
	<rect x="7.5" y="67.5" style="fill:#FFFFFF;" width="490" height="430"/>
	<polygon style="fill:#D8D7DA;" points="497.5,67.5 7.5,67.5 7.5,497.5 228.5,497.5 228.5,87.5 497.5,87.5 	"/>
	<path style="fill:#077FD5;" d="M497.5,67.5H7.5v-45c0-8.284,6.716-15,15-15h460c8.284,0,15,6.716,15,15V67.5z"/>
	<rect x="7.5" y="67.5" style="fill:#FF994D;" width="192" height="430"/>
	<rect x="7.5" y="67.5" style="fill:#FF6E4A;" width="192" height="20"/>
	<rect x="7.5" y="50.5" style="fill:#0053C0;" width="490" height="17"/>
	<path style="fill:#FFFFFF;" d="M37,194.5H22v-16h15V194.5z M37,163.5H22v-65h15V163.5z"/>
	<g>
		<path d="M482.5,0h-460C10.093,0,0,10.093,0,22.5V60v15v430h207h298V75V60V22.5C505,10.093,494.906,0,482.5,0z M15,490V75h177v415
			H15z M490,490H207V75h283V490z M207,60H15V22.5c0-4.136,3.364-7.5,7.5-7.5h460c4.136,0,7.5,3.364,7.5,7.5V60H207z"/>
		<rect x="61.5" y="30" width="15" height="15"/>
		<rect x="91.5" y="30" width="15" height="15"/>
		<rect x="31.5" y="30" width="15" height="15"/>
		<rect x="49.5" y="123" width="106" height="15"/>
		<rect x="49.5" y="166.429" width="106" height="15"/>
		<rect x="49.5" y="209.857" width="106" height="15"/>
		<rect x="49.5" y="253.286" width="106" height="15"/>
		<rect x="49.5" y="296.714" width="106" height="15"/>
		<rect x="49.5" y="340.143" width="106" height="15"/>
		<rect x="49.5" y="383.571" width="106" height="15"/>
		<rect x="109.5" y="427" width="15" height="15"/>
		<rect x="49.5" y="427" width="15" height="15"/>
		<rect x="79.5" y="427" width="15" height="15"/>
		<rect x="139.5" y="427" width="15" height="15"/>
		<polygon points="363.849,272.595 327.177,317.773 338.823,327.227 383.151,272.615 338.833,217.785 327.167,227.215 		"/>
	</g>
</g>
<g>
</g>
<g>
</g>
<g>
</g>
<g>
</g>
<g>
</g>
<g>
</g>
<g>
</g>
<g>
</g>
<g>
</g>
<g>
</g>
<g>
</g>
<g>
</g>
<g>
</g>
<g>
</g>
<g>
</g>
</svg>
