<?xml version="1.0" encoding="iso-8859-1"?>
<!-- Generator: Adobe Illustrator 19.0.0, SVG Export Plug-In . SVG Version: 6.00 Build 0)  -->
<svg version="1.1" id="Layer_1" xmlns="http://www.w3.org/2000/svg" xmlns:xlink="http://www.w3.org/1999/xlink" x="0px" y="0px"
	 viewBox="0 0 506.875 506.875" style="enable-background:new 0 0 506.875 506.875;" xml:space="preserve">
<g>
	<path style="fill:#077FD5;" d="M253.438,69.375l-200,150v280h140v-141c0-33.137,26.863-60,60-60h0c33.137,0,60,26.863,60,60v141
		h140v-280L253.438,69.375z"/>
	<path style="fill:#0053C0;" d="M333.438,358.375c0-44.183-35.817-80-80-80h0c-44.183,0-80,35.817-80,80v121h-120v20h140v-141
		c0-33.137,26.863-60,60-60h0c33.137,0,60,26.863,60,60v141h140v-20h-120V358.375z"/>
	<path style="fill:#FFFFFF;" d="M197.943,163.381l-9.001-11.999l11.999-9.001l9.001,11.999L197.943,163.381z M221.941,145.378
		l-9.001-11.999l35.997-27.004l9.001,11.999L221.941,145.378z"/>
	<g>
		<path d="M45.938,215.625v291.25h155v-148.5c0-28.949,23.551-52.5,52.5-52.5s52.5,23.551,52.5,52.5v148.5h155v-291.25L253.438,60
			L45.938,215.625z M445.938,491.875h-125v-133.5c0-37.22-30.28-67.5-67.5-67.5s-67.5,30.28-67.5,67.5v133.5h-125v-268.75
			l192.5-144.375l192.5,144.375V491.875z"/>
		<polygon points="253.438,0 125.938,95.625 125.938,50.875 60.938,50.875 60.938,144.375 3.938,187.125 12.938,199.125 
			75.938,151.875 75.938,65.875 110.938,65.875 110.938,125.625 253.438,18.75 493.938,199.125 502.938,187.125 		"/>
		<rect x="275.938" y="204.875" width="15" height="15"/>
		<rect x="215.938" y="204.875" width="15" height="15"/>
		<rect x="245.938" y="204.875" width="15" height="15"/>
	</g>
</g>
<g>
</g>
<g>
</g>
<g>
</g>
<g>
</g>
<g>
</g>
<g>
</g>
<g>
</g>
<g>
</g>
<g>
</g>
<g>
</g>
<g>
</g>
<g>
</g>
<g>
</g>
<g>
</g>
<g>
</g>
</svg>
