<?xml version="1.0" encoding="iso-8859-1"?>
<!-- Generator: Adobe Illustrator 19.0.0, SVG Export Plug-In . SVG Version: 6.00 Build 0)  -->
<svg version="1.1" id="Layer_1" xmlns="http://www.w3.org/2000/svg" xmlns:xlink="http://www.w3.org/1999/xlink" x="0px" y="0px"
	 viewBox="0 0 505 505" style="enable-background:new 0 0 505 505;" xml:space="preserve">
<g>
	<path style="fill:#FDD93B;" d="M252.5,497.5L252.5,497.5c-135.31,0-245-109.69-245-245v0c0-135.31,109.69-245,245-245h0
		c135.31,0,245,109.69,245,245v0C497.5,387.81,387.81,497.5,252.5,497.5z"/>
	<path style="fill:#F5A800;" d="M252.5,7.5L252.5,7.5c-135.31,0-245,109.69-245,245v0c0,135.31,109.69,245,245,245h0
		c135.31,0,245-109.69,245-245v0C497.5,117.19,387.81,7.5,252.5,7.5z M404.528,404.528C363.92,445.136,309.929,467.5,252.5,467.5
		c-57.429,0-111.42-22.364-152.029-62.972C59.864,363.92,37.5,309.929,37.5,252.5s22.364-111.42,62.972-152.029
		C141.08,59.864,195.071,37.5,252.5,37.5c57.429,0,111.42,22.364,152.028,62.972c40.608,40.608,62.973,94.6,62.973,152.028
		C467.5,309.928,445.136,363.92,404.528,404.528z"/>
	<polygon style="fill:#F5A800;" points="101.918,252.5 328.5,104.555 328.5,400.445 	"/>
	<polygon style="fill:#E2324E;" points="308.5,363.5 138.5,252.5 308.5,141.5 	"/>
	<polygon style="fill:#A00B3F;" points="138.5,252.5 308.5,363.5 308.5,338.5 157.644,240 	"/>
	<g>
		<path d="M431.044,73.956C383.354,26.265,319.945,0,252.5,0C185.054,0,121.646,26.265,73.956,73.956
			C26.265,121.646,0,185.055,0,252.5s26.265,130.854,73.956,178.544C121.646,478.735,185.055,505,252.5,505
			c67.445,0,130.853-26.265,178.543-73.956C478.735,383.354,505,319.945,505,252.5S478.735,121.646,431.044,73.956z M252.5,490
			L252.5,490C121.542,490,15,383.458,15,252.5C15,121.542,121.542,15,252.5,15C383.458,15,490,121.542,490,252.5
			C490,383.458,383.458,490,252.5,490z"/>
		<path d="M45,252.5H30c0,59.432,23.144,115.306,65.169,157.331C137.194,451.856,193.069,475,252.5,475v-15
			c-55.425,0-107.533-21.583-146.725-60.775C66.584,360.033,45,307.926,45,252.5z"/>
		<path d="M409.832,95.168C367.807,53.144,311.932,30,252.5,30v15c55.425,0,107.534,21.583,146.725,60.775
			C438.416,144.967,460,197.075,460,252.5h15C475,193.068,451.856,137.194,409.832,95.168z"/>
		<path d="M316,377.354V127.646L124.782,252.5L316,377.354z M301,349.646L152.218,252.5L301,155.354V349.646z"/>
		<rect x="341" y="290" width="15" height="15"/>
		<rect x="341" y="320" width="15" height="15"/>
		<rect x="341" y="170" width="15" height="15"/>
		<rect x="341" y="200" width="15" height="15"/>
		<rect x="341" y="260" width="15" height="15"/>
		<rect x="341" y="230" width="15" height="15"/>
	</g>
</g>
<g>
</g>
<g>
</g>
<g>
</g>
<g>
</g>
<g>
</g>
<g>
</g>
<g>
</g>
<g>
</g>
<g>
</g>
<g>
</g>
<g>
</g>
<g>
</g>
<g>
</g>
<g>
</g>
<g>
</g>
</svg>
