<?xml version="1.0" encoding="iso-8859-1"?>
<!-- Generator: Adobe Illustrator 19.0.0, SVG Export Plug-In . SVG Version: 6.00 Build 0)  -->
<svg version="1.1" id="Layer_1" xmlns="http://www.w3.org/2000/svg" xmlns:xlink="http://www.w3.org/1999/xlink" x="0px" y="0px"
	 viewBox="0 0 508.106 508.106" style="enable-background:new 0 0 508.106 508.106;" xml:space="preserve">
<g>
	<rect x="7.5" y="7.5" style="fill:#FDD93B;" width="490" height="390"/>
	<g>
		<rect x="47.5" y="47.5" style="fill:#FFFFFF;" width="50" height="50"/>
		<rect x="137.5" y="47.5" style="fill:#FFFFFF;" width="320" height="50"/>
	</g>
	<g>
		<rect x="47.5" y="142" style="fill:#FFFFFF;" width="50" height="50"/>
		<rect x="137.5" y="142" style="fill:#FFFFFF;" width="320" height="50"/>
	</g>
	<g>
		<rect x="47.5" y="236.5" style="fill:#FFFFFF;" width="50" height="50"/>
		<rect x="137.5" y="236.5" style="fill:#FFFFFF;" width="183" height="50"/>
	</g>
	<polygon style="fill:#F5A800;" points="497.5,397.5 497.5,370.221 462.145,334.865 443.505,353.505 443.505,216.5 353.505,216.5 
		353.505,353.505 334.865,334.865 272.23,397.5 	"/>
	<g>
		<polygon style="fill:#FFFFFF;" points="462.145,363.15 423.505,401.789 423.505,236.5 373.505,236.5 373.505,401.789 
			334.865,363.15 299.51,398.505 398.505,497.5 497.5,398.505 		"/>
	</g>
	<polygon style="fill:#D8D7DA;" points="398.505,466.5 315.01,383.005 299.51,398.505 398.505,497.5 497.5,398.505 482,383.005 	"/>
	<g>
		<path d="M105,40H40v65h65V40z M90,90H55V55h35V90z"/>
		<path d="M465,40H130v65h335V40z M450,90H145V55h305V90z"/>
		<path d="M105,134.5H40v65h65V134.5z M90,184.5H55v-35h35V184.5z"/>
		<path d="M465,134.5H130v65h335V134.5z M450,184.5H145v-35h305V184.5z"/>
		<path d="M40,294h65v-65H40V294z M55,244h35v35H55V244z"/>
		<path d="M130,294h198v-65H130V294z M145,244h168v35H145V244z"/>
		<path d="M462.145,352.543l-31.14,31.14V229h-65v154.683l-31.14-31.14l-45.962,45.962l109.602,109.602l109.602-109.602
			L462.145,352.543z M310.116,398.505l24.749-24.749l46.14,46.14V244h35v175.896l46.14-46.14l24.749,24.749l-88.389,88.389
			L310.116,398.505z"/>
		<polygon points="15,15 490,15 490,345.5 505,345.5 505,0 0,0 0,405 258.088,405 258.088,390 15,390 		"/>
		<rect x="37.5" y="443" width="15" height="15"/>
		<rect x="7.5" y="443" width="15" height="15"/>
		<rect x="67.5" y="443" width="15" height="15"/>
		<rect x="97.5" y="443" width="15" height="15"/>
		<rect x="187.5" y="443" width="15" height="15"/>
		<rect x="217.5" y="443" width="15" height="15"/>
		<rect x="127.5" y="443" width="15" height="15"/>
		<rect x="157.5" y="443" width="15" height="15"/>
	</g>
</g>
<g>
</g>
<g>
</g>
<g>
</g>
<g>
</g>
<g>
</g>
<g>
</g>
<g>
</g>
<g>
</g>
<g>
</g>
<g>
</g>
<g>
</g>
<g>
</g>
<g>
</g>
<g>
</g>
<g>
</g>
</svg>
