<?xml version="1.0" encoding="iso-8859-1"?>
<!-- Generator: Adobe Illustrator 19.0.0, SVG Export Plug-In . SVG Version: 6.00 Build 0)  -->
<svg version="1.1" id="Layer_1" xmlns="http://www.w3.org/2000/svg" xmlns:xlink="http://www.w3.org/1999/xlink" x="0px" y="0px"
	 viewBox="0 0 505 505" style="enable-background:new 0 0 505 505;" xml:space="preserve">
<g>
	<rect x="7.5" y="42.5" style="fill:#FF994D;" width="490" height="420"/>
	<rect x="7.5" y="42.5" style="fill:#DD8B14;" width="490" height="100"/>
	<polygon style="fill:#FF6E4A;" points="186.5,143.849 363.082,259.147 186.5,374.445 	"/>
	<polygon style="fill:#FFFFFF;" points="206.5,337.5 326.5,259.147 206.5,180.794 	"/>
	<rect x="52.5" y="376.5" style="fill:#FF6E4A;" width="400" height="70"/>
	<rect x="72.5" y="396.5" style="fill:#D8D7DA;" width="360" height="30"/>
	<rect x="72.5" y="396.5" style="fill:#00E2F0;" width="64" height="30"/>
	<rect x="136.5" y="391.5" style="fill:#077FD5;" width="40" height="40"/>
	<rect x="7.5" y="42.5" style="fill:#E2324E;" width="490" height="80"/>
	<rect x="116.5" y="396.5" style="fill:#00C6DA;" width="20" height="30"/>
	<rect x="176.5" y="396.5" style="fill:#ACABB1;" width="20" height="30"/>
	<g>
		<path d="M0,35v435h505V35H0z M490,50v65H15V50H490z M15,455V130h475v325H15z"/>
		<rect x="320" y="74" width="15" height="15"/>
		<rect x="230" y="74" width="15" height="15"/>
		<rect x="290" y="74" width="15" height="15"/>
		<rect x="350" y="74" width="15" height="15"/>
		<rect x="260" y="74" width="15" height="15"/>
		<rect x="380" y="74" width="15" height="15"/>
		<rect x="440" y="74" width="15" height="15"/>
		<rect x="410" y="74" width="15" height="15"/>
		<rect x="80" y="74" width="15" height="15"/>
		<rect x="110" y="74" width="15" height="15"/>
		<rect x="200" y="74" width="15" height="15"/>
		<rect x="50" y="74" width="15" height="15"/>
		<rect x="140" y="74" width="15" height="15"/>
		<rect x="170" y="74" width="15" height="15"/>
		<path d="M199,166.94v184.414l141.218-92.207L199,166.94z M214,194.648l98.782,64.499L214,323.646V194.648z"/>
		<path d="M440,389H184v-5h-55v5H65v45h64v5h55v-5h256V389z M80,419v-15h49v15H80z M169,424h-25v-25h25V424z M425,419H184v-15h241
			V419z"/>
	</g>
</g>
<g>
</g>
<g>
</g>
<g>
</g>
<g>
</g>
<g>
</g>
<g>
</g>
<g>
</g>
<g>
</g>
<g>
</g>
<g>
</g>
<g>
</g>
<g>
</g>
<g>
</g>
<g>
</g>
<g>
</g>
</svg>
