<?xml version="1.0" encoding="iso-8859-1"?>
<!-- Generator: Adobe Illustrator 19.0.0, SVG Export Plug-In . SVG Version: 6.00 Build 0)  -->
<svg version="1.1" id="Layer_1" xmlns="http://www.w3.org/2000/svg" xmlns:xlink="http://www.w3.org/1999/xlink" x="0px" y="0px"
	 viewBox="0 0 505 505" style="enable-background:new 0 0 505 505;" xml:space="preserve">
<g>
	<path style="fill:#077FD5;" d="M497.5,67.5H7.5v-45c0-8.284,6.716-15,15-15h460c8.284,0,15,6.716,15,15V67.5z"/>
	<rect x="7.497" y="50.5" style="fill:#0053C0;" width="490" height="17"/>
	<rect x="7.5" y="67.5" style="fill:#FDD93B;" width="490" height="430"/>
	<path style="fill:#F5A800;" d="M252.5,391C143.443,391,58.272,282.865,54.7,278.262L45.184,266l9.516-12.262
		C58.272,249.135,143.443,141,252.5,141s194.228,108.135,197.801,112.738L459.816,266l-9.516,12.262
		C446.728,282.865,361.557,391,252.5,391z"/>
	<path style="fill:#FFFFFF;" d="M434.5,266c0,0-81.484,105-182,105s-182-105-182-105s81.484-105,182-105S434.5,266,434.5,266z"/>
	<g>
		<path style="fill:#BD8A53;" d="M304.5,255.5c-16.569,0-30-13.431-30-30c0-9.028,3.993-17.118,10.303-22.617
			c-9.169-4.41-19.447-6.883-30.303-6.883c-38.66,0-70,31.34-70,70c0,38.66,31.34,70,70,70s70-31.34,70-70
			c0-5.692-0.696-11.219-1.978-16.517C317.504,253.26,311.264,255.5,304.5,255.5z"/>
		<path style="fill:#FFFFFF;" d="M222,266h-15c0-21.679,14.662-40.597,35.655-46.004l3.741,14.525
			C232.032,238.222,222,251.166,222,266z"/>
	</g>
	<path style="fill:#AA6D3B;" d="M254.5,314.5c-35.004,0-64.005-25.694-69.177-59.25c-0.54,3.505-0.823,7.094-0.823,10.75
		c0,38.66,31.34,70,70,70s70-31.34,70-70c0-3.643-0.288-7.218-0.83-10.709C318.481,288.827,289.49,314.5,254.5,314.5z"/>
	<rect x="7.5" y="67.5" style="fill:#F5A800;" width="490" height="20"/>
	<path style="fill:#D8D7DA;" d="M252.5,181.5c81.1,0,149.8,68.344,173.318,94.75c5.63-6.322,8.682-10.25,8.682-10.25
		s-81.484-105-182-105s-182,105-182,105s3.052,3.928,8.682,10.25C102.7,249.844,171.4,181.5,252.5,181.5z"/>
	<path style="fill:#FFFFFF;" d="M48,208.5H33v-15h15V208.5z M48,178.5H33v-74h15V178.5z"/>
	<g>
		<path d="M482.5,0h-460C10.093,0,0,10.094,0,22.5V60v15v430h505V75V60V22.5C505,10.094,494.906,0,482.5,0z M490,490H15V75h475V490z
			 M15,60V22.5c0-4.136,3.364-7.5,7.5-7.5h460c4.136,0,7.5,3.364,7.5,7.5V60H15z"/>
		<rect x="91.5" y="30" width="15" height="15"/>
		<rect x="61.5" y="30" width="15" height="15"/>
		<rect x="31.5" y="30" width="15" height="15"/>
		<path d="M119.132,324.365C163.567,359.78,209.685,378.5,252.5,378.5c42.814,0,88.933-18.72,133.368-54.135
			c33.254-26.504,53.703-52.666,54.557-53.768l3.568-4.598l-3.568-4.598c-0.854-1.102-21.303-27.264-54.557-53.768
			C341.433,172.22,295.314,153.5,252.5,153.5c-42.815,0-88.933,18.72-133.368,54.135c-33.254,26.504-53.703,52.666-54.558,53.768
			L61.006,266l3.568,4.598C65.429,271.699,85.878,297.861,119.132,324.365z M128.755,219.147
			C157.807,196.042,202.859,168.5,252.5,168.5c49.642,0,94.693,27.542,123.745,50.647c23.93,19.03,41.268,38.286,48.541,46.853
			c-7.273,8.566-24.611,27.822-48.541,46.853C347.193,335.958,302.142,363.5,252.5,363.5c-49.641,0-94.693-27.542-123.745-50.647
			c-23.93-19.03-41.269-38.287-48.541-46.853C87.487,257.434,104.825,238.178,128.755,219.147z"/>
		<path d="M254.5,343.5c42.733,0,77.5-34.767,77.5-77.5c0-6.129-0.736-12.279-2.188-18.281l-2.685-11.089l-9.115,6.861
			C314.092,246.44,309.42,248,304.5,248c-12.406,0-22.5-10.094-22.5-22.5c0-6.499,2.817-12.682,7.73-16.963l8.58-7.479
			l-10.256-4.935c-10.517-5.059-21.806-7.624-33.555-7.624c-42.734,0-77.5,34.767-77.5,77.5S211.766,343.5,254.5,343.5z
			 M254.5,203.5c6.155,0,12.149,0.871,17.917,2.598c-3.508,5.794-5.417,12.49-5.417,19.402c0,20.678,16.822,37.5,37.5,37.5
			c4.246,0,8.384-0.698,12.293-2.054c0.138,1.683,0.207,3.37,0.207,5.054c0,34.463-28.037,62.5-62.5,62.5
			c-34.462,0-62.5-28.037-62.5-62.5S220.038,203.5,254.5,203.5z"/>
		<rect x="70.5" y="173" width="15" height="15"/>
		<rect x="419.5" y="173" width="15" height="15"/>
		<rect x="70.5" y="344" width="15" height="15"/>
		<rect x="419.5" y="344" width="15" height="15"/>
	</g>
</g>
<g>
</g>
<g>
</g>
<g>
</g>
<g>
</g>
<g>
</g>
<g>
</g>
<g>
</g>
<g>
</g>
<g>
</g>
<g>
</g>
<g>
</g>
<g>
</g>
<g>
</g>
<g>
</g>
<g>
</g>
</svg>
