<?xml version="1.0" encoding="iso-8859-1"?>
<!-- Generator: Adobe Illustrator 19.0.0, SVG Export Plug-In . SVG Version: 6.00 Build 0)  -->
<svg version="1.1" id="Layer_1" xmlns="http://www.w3.org/2000/svg" xmlns:xlink="http://www.w3.org/1999/xlink" x="0px" y="0px"
	 viewBox="0 0 505 505" style="enable-background:new 0 0 505 505;" xml:space="preserve">
<g>
	<path style="fill:#00E2F0;" d="M354,7.5v490h-47c-4.14,0-7.89-1.68-10.6-4.4c-2.72-2.71-4.4-6.46-4.4-10.6l-177-130H50
		c-17.67,0-32-14.33-32-32v-136c0-17.67,14.33-32,32-32h65l177-130c0-8.28,6.72-15,15-15H354z"/>
	<path style="fill:#077FD5;" d="M292,482.5L292,482.5c0,8.284,6.716,15,15,15h47V7.5h-47c-8.284,0-15,6.716-15,15v0V482.5z"/>
	<path style="fill:#00C6DA;" d="M354,188.25v-83.38c-81.33,1.6-147,68.26-147,149.97s65.67,148.37,147,149.97v-83.37
		c-1.45-0.06-2.9-0.17-4.34-0.33l4.34-4.34V198.92l-63.26,63.26c-0.27-2.43-0.41-4.88-0.41-7.34
		C290.33,219.08,318.63,189.82,354,188.25z"/>
	<path style="fill:#FFFFFF;" d="M168.439,162.545l-8.879-12.09l12.687-9.318l8.879,12.09L168.439,162.545z M193.216,144.348
		l-8.879-12.09l57.224-42.029l8.879,12.09L193.216,144.348z"/>
	<path style="fill:#00C6DA;" d="M292,441.5l-177-130H50c-17.673,0-32-14.327-32-32v41c0,17.673,14.327,32,32,32h65l177,130
		c0,8.284,6.716,15,15,15h47v-41h-47C298.716,456.5,292,449.784,292,441.5z"/>
	<path style="fill:#077FD5;" d="M115,152.5H50c-17.673,0-32,14.327-32,32v136c0,17.673,14.327,32,32,32h65V152.5z"/>
	<path style="fill:#0053C0;" d="M50,311.5c-17.673,0-32-14.327-32-32v41c0,17.673,14.327,32,32,32h65v-41H50z"/>
	<path style="fill:#0053C0;" d="M292,441.5v41c0,8.284,6.716,15,15,15h47v-41h-47C298.716,456.5,292,449.784,292,441.5z"/>
	<path style="fill:#0053C0;" d="M292,119.672v270.345c18.828,9.09,39.833,14.352,62,14.789V104.883
		C331.833,105.32,310.828,110.582,292,119.672z"/>
	<path style="fill:#E2324E;" d="M357,124.845c-71.797,0-130,58.203-130,130s58.203,130,130,130s130-58.203,130-130
		S428.797,124.845,357,124.845z M270.333,254.845c0-47.865,38.802-86.667,86.667-86.667c16.072,0,31.119,4.38,44.021,12.004
		L282.337,298.866C274.714,285.964,270.333,270.917,270.333,254.845z M357,341.512c-16.072,0-31.119-4.38-44.021-12.004
		l118.684-118.684c7.624,12.903,12.004,27.949,12.004,44.021C443.667,302.71,404.865,341.512,357,341.512z"/>
	<g>
		<rect x="284.5" y="59.883" width="15" height="35"/>
		<path d="M346.5,490H307c-4.136,0-7.5-3.364-7.5-7.5v-3.797v-63.896h-15v52.88l-162-118.983V186.5h-15V345H50
			c-13.51,0-24.5-10.99-24.5-24.5v-136c0-13.51,10.99-24.5,24.5-24.5h67.458L299.5,26.297V22.5c0-4.136,3.364-7.5,7.5-7.5h39.5
			v79.883h15V0H307c-11.018,0-20.212,7.961-22.132,18.433L112.542,145H50c-21.78,0-39.5,17.72-39.5,39.5v136
			c0,21.78,17.72,39.5,39.5,39.5h62.542l172.326,126.567C286.788,497.039,295.982,505,307,505h54.5v-90.193h-15V490z"/>
		<path d="M357,117.345c-75.817,0-137.5,61.683-137.5,137.5s61.683,137.5,137.5,137.5s137.5-61.683,137.5-137.5
			S432.817,117.345,357,117.345z M357,377.345c-67.547,0-122.5-54.953-122.5-122.5s54.953-122.5,122.5-122.5
			s122.5,54.953,122.5,122.5S424.547,377.345,357,377.345z"/>
		<path d="M438.12,207.009l-4.92-8.329L300.836,331.044l8.327,4.921c14.444,8.535,30.986,13.047,47.837,13.047
			c51.924,0,94.167-42.243,94.167-94.167C451.167,237.997,446.655,221.456,438.12,207.009z M357,334.012
			c-10.856,0-21.558-2.226-31.427-6.492l104.102-104.101c4.267,9.87,6.492,20.571,6.492,31.426
			C436.167,298.497,400.653,334.012,357,334.012z"/>
		<path d="M404.837,173.726c-14.444-8.535-30.986-13.047-47.837-13.047c-51.924,0-94.167,42.243-94.167,94.166
			c0,16.849,4.512,33.391,13.047,47.837l4.92,8.328l132.364-132.363L404.837,173.726z M284.325,286.271
			c-4.267-9.87-6.492-20.571-6.492-31.427c0-43.652,35.514-79.166,79.167-79.166c10.856,0,21.558,2.226,31.427,6.492
			L284.325,286.271z"/>
	</g>
</g>
<g>
</g>
<g>
</g>
<g>
</g>
<g>
</g>
<g>
</g>
<g>
</g>
<g>
</g>
<g>
</g>
<g>
</g>
<g>
</g>
<g>
</g>
<g>
</g>
<g>
</g>
<g>
</g>
<g>
</g>
</svg>
