<?xml version="1.0" encoding="iso-8859-1"?>
<!-- Generator: Adobe Illustrator 19.0.0, SVG Export Plug-In . SVG Version: 6.00 Build 0)  -->
<svg version="1.1" id="Layer_1" xmlns="http://www.w3.org/2000/svg" xmlns:xlink="http://www.w3.org/1999/xlink" x="0px" y="0px"
	 viewBox="0 0 506 506" style="enable-background:new 0 0 506 506;" xml:space="preserve">
<g>
	<rect x="33.5" y="38" style="fill:#FFFFFF;" width="440" height="400"/>
	<path style="fill:#D8D7DA;" d="M473.5,108h-440v109.973c8.476-0.274,16.358-2.935,23-7.328C63.52,215.288,71.923,218,80.95,218h0.1
		c9.028,0,17.43-2.712,24.45-7.355c7.02,4.642,15.423,7.355,24.45,7.355h0.1c9.028,0,17.43-2.712,24.45-7.355
		c7.02,4.642,15.423,7.355,24.45,7.355h0.1c9.028,0,17.43-2.712,24.45-7.355c7.02,4.642,15.423,7.355,24.45,7.355h0.1
		c9.028,0,17.43-2.712,24.45-7.355c7.02,4.642,15.423,7.355,24.45,7.355h0.1c9.028,0,17.43-2.712,24.45-7.355
		c7.02,4.642,15.423,7.355,24.45,7.355h0.1c9.028,0,17.43-2.712,24.45-7.355c7.02,4.642,15.423,7.355,24.45,7.355h0.1
		c9.028,0,17.43-2.712,24.45-7.355c7.02,4.642,15.423,7.355,24.45,7.355h0.1c9.028,0,17.43-2.712,24.45-7.355
		c7.02,4.642,15.423,7.355,24.45,7.355h0.1c0.151,0,0.3-0.01,0.45-0.011V108z"/>
	<g>
		<path style="fill:#E2324E;" d="M32.05,198h-0.1C18.447,198,7.5,187.053,7.5,173.55V108h49v65.55
			C56.5,187.053,45.553,198,32.05,198z"/>
		<path style="fill:#FF994D;" d="M81.05,198h-0.1c-13.503,0-24.45-10.947-24.45-24.45V108h49v65.55
			C105.5,187.053,94.553,198,81.05,198z"/>
		<path style="fill:#E2324E;" d="M130.05,198h-0.1c-13.503,0-24.45-10.947-24.45-24.45V108h49v65.55
			C154.5,187.053,143.553,198,130.05,198z"/>
		<path style="fill:#FF994D;" d="M179.05,198h-0.1c-13.503,0-24.45-10.947-24.45-24.45V108h49v65.55
			C203.5,187.053,192.553,198,179.05,198z"/>
		<path style="fill:#E2324E;" d="M228.05,198h-0.1c-13.503,0-24.45-10.947-24.45-24.45V108h49v65.55
			C252.5,187.053,241.553,198,228.05,198z"/>
		<path style="fill:#FF994D;" d="M277.05,198h-0.1c-13.503,0-24.45-10.947-24.45-24.45V108h49v65.55
			C301.5,187.053,290.553,198,277.05,198z"/>
		<path style="fill:#E2324E;" d="M326.05,198h-0.1c-13.503,0-24.45-10.947-24.45-24.45V108h49v65.55
			C350.5,187.053,339.553,198,326.05,198z"/>
		<path style="fill:#FF994D;" d="M375.05,198h-0.1c-13.503,0-24.45-10.947-24.45-24.45V108h49v65.55
			C399.5,187.053,388.553,198,375.05,198z"/>
		<path style="fill:#E2324E;" d="M424.05,198h-0.1c-13.503,0-24.45-10.947-24.45-24.45V108h49v65.55
			C448.5,187.053,437.553,198,424.05,198z"/>
		<path style="fill:#FF994D;" d="M473.05,198h-0.1c-13.503,0-24.45-10.947-24.45-24.45V108h49v65.55
			C497.5,187.053,486.553,198,473.05,198z"/>
	</g>
	<rect x="33.5" y="418" style="fill:#D8D7DA;" width="440" height="20"/>
	<rect x="8.5" y="8" style="fill:#ACABB1;" width="490" height="30"/>
	<rect x="13" y="436" style="fill:#ACABB1;" width="490" height="60"/>
	<rect x="82.5" y="234" style="fill:#BD8A53;" width="119" height="203"/>
	<rect x="241.5" y="234" style="fill:#00E2F0;" width="200" height="145"/>
	<rect x="33.5" y="38" style="fill:#D8D7DA;" width="440" height="20"/>
	<path style="fill:#A00B3F;" d="M32.05,177h-0.1C18.447,177,7.5,166.053,7.5,152.55v21C7.5,187.053,18.447,198,31.95,198h0.1
		c13.503,0,24.45-10.947,24.45-24.45v-21C56.5,166.053,45.553,177,32.05,177z"/>
	<path style="fill:#FF6E4A;" d="M81.05,177h-0.1c-13.503,0-24.45-10.947-24.45-24.45v21c0,13.503,10.947,24.45,24.45,24.45h0.1
		c13.503,0,24.45-10.947,24.45-24.45v-21C105.5,166.053,94.553,177,81.05,177z"/>
	<path style="fill:#A00B3F;" d="M130.05,177h-0.1c-13.503,0-24.45-10.947-24.45-24.45v21c0,13.503,10.947,24.45,24.45,24.45h0.1
		c13.503,0,24.45-10.947,24.45-24.45v-21C154.5,166.053,143.553,177,130.05,177z"/>
	<path style="fill:#FF6E4A;" d="M179.05,177h-0.1c-13.503,0-24.45-10.947-24.45-24.45v21c0,13.503,10.947,24.45,24.45,24.45h0.1
		c13.503,0,24.45-10.947,24.45-24.45v-21C203.5,166.053,192.553,177,179.05,177z"/>
	<path style="fill:#A00B3F;" d="M228.05,177h-0.1c-13.503,0-24.45-10.947-24.45-24.45v21c0,13.503,10.947,24.45,24.45,24.45h0.1
		c13.503,0,24.45-10.947,24.45-24.45v-21C252.5,166.053,241.553,177,228.05,177z"/>
	<path style="fill:#FF6E4A;" d="M277.05,177h-0.1c-13.503,0-24.45-10.947-24.45-24.45v21c0,13.503,10.947,24.45,24.45,24.45h0.1
		c13.503,0,24.45-10.947,24.45-24.45v-21C301.5,166.053,290.553,177,277.05,177z"/>
	<path style="fill:#A00B3F;" d="M326.05,177h-0.1c-13.503,0-24.45-10.947-24.45-24.45v21c0,13.503,10.947,24.45,24.45,24.45h0.1
		c13.503,0,24.45-10.947,24.45-24.45v-21C350.5,166.053,339.553,177,326.05,177z"/>
	<path style="fill:#FF6E4A;" d="M375.05,177h-0.1c-13.503,0-24.45-10.947-24.45-24.45v21c0,13.503,10.947,24.45,24.45,24.45h0.1
		c13.503,0,24.45-10.947,24.45-24.45v-21C399.5,166.053,388.553,177,375.05,177z"/>
	<path style="fill:#A00B3F;" d="M424.05,177h-0.1c-13.503,0-24.45-10.947-24.45-24.45v21c0,13.503,10.947,24.45,24.45,24.45h0.1
		c13.503,0,24.45-10.947,24.45-24.45v-21C448.5,166.053,437.553,177,424.05,177z"/>
	<path style="fill:#FF6E4A;" d="M473.05,177h-0.1c-13.503,0-24.45-10.947-24.45-24.45v21c0,13.503,10.947,24.45,24.45,24.45h0.1
		c13.503,0,24.45-10.947,24.45-24.45v-21C497.5,166.053,486.553,177,473.05,177z"/>
	<rect x="241.5" y="234" style="fill:#00C6DA;" width="200" height="20"/>
	<rect x="82.5" y="417" style="fill:#AA6D3B;" width="119" height="20"/>
	<path style="fill:#FFFFFF;" d="M273,340h-15v-14h15V340z M273,311h-15v-48h15V311z"/>
	<g>
		<path d="M481,218h-15v212.5H209v-204H75v204H41V218H26v212.5H1v75h505v-75h-25V218z M90,241.5h104v188H90V241.5z M491,490.5H16
			v-45h475V490.5z"/>
		<path d="M1,0.5v45h25V84h15V45.5h425V84h15V45.5h25v-45H1z M491,30.5H16v-15h475V30.5z"/>
		<path d="M31.95,205.5h0.1c9.803,0,18.585-4.442,24.45-11.414c5.866,6.972,14.647,11.414,24.45,11.414h0.1
			c9.803,0,18.585-4.442,24.45-11.414c5.866,6.972,14.647,11.414,24.45,11.414h0.1c9.803,0,18.585-4.442,24.45-11.414
			c5.866,6.972,14.647,11.414,24.45,11.414h0.1c9.803,0,18.585-4.442,24.45-11.414c5.866,6.972,14.647,11.414,24.45,11.414h0.1
			c9.803,0,18.585-4.442,24.45-11.414c5.866,6.972,14.647,11.414,24.45,11.414h0.1c9.803,0,18.585-4.442,24.45-11.414
			c5.866,6.972,14.647,11.414,24.45,11.414h0.1c9.803,0,18.585-4.442,24.45-11.414c5.866,6.972,14.647,11.414,24.45,11.414h0.1
			c9.803,0,18.585-4.442,24.45-11.414c5.866,6.972,14.647,11.414,24.45,11.414h0.1c9.803,0,18.585-4.442,24.45-11.414
			c5.866,6.972,14.647,11.414,24.45,11.414h0.1c17.617,0,31.95-14.333,31.95-31.95V100.5h-49h-15h-34h-15h-34h-15h-34h-15h-34h-15
			h-34h-15h-34h-15h-34H98H64H49H0v73.05C0,191.167,14.333,205.5,31.95,205.5z M456,115.5h34v58.05c0,9.347-7.604,16.95-16.95,16.95
			h-0.1c-9.347,0-16.95-7.604-16.95-16.95V115.5z M407,115.5h34v58.05c0,9.347-7.604,16.95-16.95,16.95h-0.1
			c-9.347,0-16.95-7.604-16.95-16.95V115.5z M358,115.5h34v58.05c0,9.347-7.604,16.95-16.95,16.95h-0.1
			c-9.347,0-16.95-7.604-16.95-16.95V115.5z M309,115.5h34v58.05c0,9.347-7.604,16.95-16.95,16.95h-0.1
			c-9.347,0-16.95-7.604-16.95-16.95V115.5z M260,115.5h34v58.05c0,9.347-7.604,16.95-16.95,16.95h-0.1
			c-9.347,0-16.95-7.604-16.95-16.95V115.5z M211,115.5h34v58.05c0,9.347-7.604,16.95-16.95,16.95h-0.1
			c-9.347,0-16.95-7.604-16.95-16.95V115.5z M162,115.5h34v58.05c0,9.347-7.604,16.95-16.95,16.95h-0.1
			c-9.347,0-16.95-7.604-16.95-16.95V115.5z M113,115.5h34v58.05c0,9.347-7.604,16.95-16.95,16.95h-0.1
			c-9.347,0-16.95-7.604-16.95-16.95V115.5z M64,115.5h34v58.05c0,9.347-7.604,16.95-16.95,16.95h-0.1
			c-9.347,0-16.95-7.604-16.95-16.95V115.5z M15,115.5h34v58.05c0,9.347-7.604,16.95-16.95,16.95h-0.1
			c-9.347,0-16.95-7.604-16.95-16.95V115.5z"/>
		<path d="M234,386.5h215v-160H234V386.5z M249,241.5h185v130H249V241.5z"/>
		<rect x="303" y="303.5" width="15" height="15"/>
		<rect x="333" y="303.5" width="15" height="15"/>
		<rect x="363" y="303.5" width="15" height="15"/>
		<rect x="105" y="308" width="15" height="48"/>
	</g>
</g>
<g>
</g>
<g>
</g>
<g>
</g>
<g>
</g>
<g>
</g>
<g>
</g>
<g>
</g>
<g>
</g>
<g>
</g>
<g>
</g>
<g>
</g>
<g>
</g>
<g>
</g>
<g>
</g>
<g>
</g>
</svg>
