<?xml version="1.0" encoding="iso-8859-1"?>
<!-- Generator: Adobe Illustrator 19.0.0, SVG Export Plug-In . SVG Version: 6.00 Build 0)  -->
<svg version="1.1" id="Layer_1" xmlns="http://www.w3.org/2000/svg" xmlns:xlink="http://www.w3.org/1999/xlink" x="0px" y="0px"
	 viewBox="0 0 505 505" style="enable-background:new 0 0 505 505;" xml:space="preserve">
<g>
	<path style="fill:#FF994D;" d="M62.5,435L62.5,435c-30.376,0-55-24.624-55-55v-73.5h55V435z"/>
	<path style="fill:#FF994D;" d="M442.5,435L442.5,435c30.376,0,55-24.624,55-55v-73.5h-55V435z"/>
	<path style="fill:#E2324E;" d="M118.5,497.5L118.5,497.5c-30.928,0-56-25.072-56-56V300c0-30.928,25.072-56,56-56h0
		c30.928,0,56,25.072,56,56v141.5C174.5,472.428,149.428,497.5,118.5,497.5z"/>
	<path style="fill:#FFFFFF;" d="M152,300h-15c0-10.201-8.299-18.5-18.5-18.5v-15C136.972,266.5,152,281.528,152,300z"/>
	<path style="fill:#E2324E;" d="M386.5,497.5L386.5,497.5c30.928,0,56-25.072,56-56V300c0-30.928-25.072-56-56-56h0
		c-30.928,0-56,25.072-56,56v141.5C330.5,472.428,355.572,497.5,386.5,497.5z"/>
	<path style="fill:#FFFFFF;" d="M368,300h-15c0-18.472,15.028-33.5,33.5-33.5v15C376.299,281.5,368,289.799,368,300z"/>
	<path style="fill:#A00B3F;" d="M118.5,464.5L118.5,464.5c-30.928,0-56-25.072-56-56v33c0,30.928,25.072,56,56,56h0
		c30.928,0,56-25.072,56-56v-33C174.5,439.428,149.428,464.5,118.5,464.5z"/>
	<path style="fill:#A00B3F;" d="M386.5,464.5L386.5,464.5c-30.928,0-56-25.072-56-56v33c0,30.928,25.072,56,56,56h0
		c30.928,0,56-25.072,56-56v-33C442.5,439.428,417.428,464.5,386.5,464.5z"/>
	<path style="fill:#D8D7DA;" d="M7.5,306.5v-54c0-135.31,109.69-245,245-245h0c135.31,0,245,109.69,245,245v54h-56v-49
		c0-104.934-85.066-190-190-190h0c-104.934,0-190,85.066-190,190v49H7.5z"/>
	<path style="fill:#FF6E4A;" d="M7.5,338v42c0,30.376,24.624,55,55,55h0v-42h0C32.124,393,7.5,368.376,7.5,338z"/>
	<path style="fill:#FF6E4A;" d="M442.5,393L442.5,393l0,42h0c30.376,0,55-24.624,55-55v-42C497.5,368.376,472.876,393,442.5,393z"/>
	<path style="fill:#ACABB1;" d="M251.5,47.5c-115.794,0-210,94.206-210,210v49h20v-49c0-104.934,85.066-190,190-190h0
		c104.934,0,190,85.066,190,190v49h20v-49C461.5,141.706,367.294,47.5,251.5,47.5z"/>
	<rect x="137" y="311.5" style="fill:#FFFFFF;" width="15" height="15"/>
	<rect x="353" y="311.5" style="fill:#FFFFFF;" width="15" height="15"/>
	<g>
		<path d="M431.044,73.956C383.354,26.265,319.945,0,252.5,0S121.646,26.265,73.956,73.956C26.265,121.646,0,185.055,0,252.5V299v15
			v66c0,31.928,24.07,58.323,55.014,62.036C55.304,476.803,83.666,505,118.5,505c35.014,0,63.5-28.486,63.5-63.5V300
			c0-35.014-28.486-63.5-63.5-63.5c-19.996,0-37.852,9.3-49.5,23.791V257.5C69,156.869,150.869,75,251.5,75S434,156.869,434,257.5
			v0.422c-11.642-13.127-28.616-21.422-47.5-21.422c-35.014,0-63.5,28.486-63.5,63.5v141.5c0,35.014,28.486,63.5,63.5,63.5
			c34.834,0,63.196-28.197,63.486-62.964C480.93,438.323,505,411.928,505,380v-66v-15v-46.5
			C505,185.055,478.735,121.646,431.044,73.956z M15,380v-66h40v112.908C32.359,423.303,15,403.641,15,380z M118.5,251.5
			c26.743,0,48.5,21.757,48.5,48.5v141.5c0,26.743-21.757,48.5-48.5,48.5S70,468.243,70,441.5V300
			C70,273.257,91.757,251.5,118.5,251.5z M386.5,490c-26.743,0-48.5-21.757-48.5-48.5V300c0-26.743,21.757-48.5,48.5-48.5
			c23.38,0,42.948,16.63,47.5,38.682V314h1v127.5C435,468.243,413.243,490,386.5,490z M490,380c0,23.641-17.359,43.303-40,46.908
			V314h40V380z M449.975,299c-0.054-3.457-0.387-6.845-0.975-10.149V257.5C449,148.599,360.402,60,251.5,60S54,148.599,54,257.5V299
			H15v-46.5C15,121.542,121.542,15,252.5,15C383.458,15,490,121.542,490,252.5V299H449.975z"/>
		<rect x="111" y="337.5" width="15" height="15"/>
		<rect x="111" y="397.5" width="15" height="15"/>
		<rect x="111" y="367.5" width="15" height="15"/>
		<rect x="379" y="337.5" width="15" height="15"/>
		<rect x="379" y="367.5" width="15" height="15"/>
		<rect x="379" y="397.5" width="15" height="15"/>
	</g>
</g>
<g>
</g>
<g>
</g>
<g>
</g>
<g>
</g>
<g>
</g>
<g>
</g>
<g>
</g>
<g>
</g>
<g>
</g>
<g>
</g>
<g>
</g>
<g>
</g>
<g>
</g>
<g>
</g>
<g>
</g>
</svg>
