<?xml version="1.0" encoding="iso-8859-1"?>
<!-- Generator: Adobe Illustrator 19.0.0, SVG Export Plug-In . SVG Version: 6.00 Build 0)  -->
<svg version="1.1" id="Layer_1" xmlns="http://www.w3.org/2000/svg" xmlns:xlink="http://www.w3.org/1999/xlink" x="0px" y="0px"
	 viewBox="0 0 509.5 509.5" style="enable-background:new 0 0 509.5 509.5;" xml:space="preserve">
<g>
	<path style="fill:#00E2F0;" d="M481.5,383.5h-450c-11.046,0-20-8.954-20-20v-336c0-11.046,8.954-20,20-20h450
		c11.046,0,20,8.954,20,20v336C501.5,374.546,492.546,383.5,481.5,383.5z"/>
	<path style="fill:#00C6DA;" d="M239.187,281.5l-21.055-11.291l45.13-84.159c5.105-9.519,6.197-20.455,3.076-30.795
		s-10.082-18.845-19.602-23.95c-19.65-10.537-44.212-3.125-54.749,16.523l-15.614,29.119l-28.834-15.462l-4.34,8.095l-28.837-15.465
		l-8.682,16.188l-28.832-15.461l-56.05,104.521L18.635,281.5H11.5v82c0,11.046,8.954,20,20,20h450c11.046,0,20-8.954,20-20v-82
		H239.187z"/>
	<path style="fill:#FFFFFF;" d="M501.5,301.5v62c0,11.046-8.954,20-20,20h-450c-11.046,0-20-8.954-20-20v-62H501.5z"/>
	<path style="fill:#D8D7DA;" d="M241.606,301.5H16.68l-1.336,13.672l-3.844,6.221V363.5c0,4.833,1.714,9.265,4.567,12.722
		c0.815,0.988,1.723,1.896,2.711,2.711c0.494,0.408,1.008,0.792,1.54,1.151c1.064,0.719,2.201,1.338,3.397,1.844
		c2.393,1.012,5.023,1.572,7.785,1.572h140.435l37.086-21.232L241.606,301.5z"/>
	<path style="fill:#FFFFFF;" d="M306.5,427.446V383.5h-100v43.946c0,17.56-12.196,32.765-29.339,36.574h0
		c-9.151,2.034-15.661,10.15-15.661,19.524V497.5h190v-13.957c0-9.374-6.511-17.49-15.661-19.524h0
		C318.696,460.21,306.5,445.006,306.5,427.446z"/>
	<rect x="206.5" y="383.5" style="fill:#D8D7DA;" width="100" height="20"/>
	<path style="fill:#FFFFFF;" d="M470,140.5h-15v-16h15V140.5z M470,108.5h-15v-74h15V108.5z"/>
	<path style="fill:#FFD3A4;" d="M237.285,148.931L237.285,148.931c-9.947-5.334-22.338-1.597-27.671,8.35l-25.067,46.744
		l-28.832-15.461l-4.341,8.094l-28.84-15.465l-8.681,16.188L85.022,181.92l-44.707,83.37l-5.517,56.446L0.5,377.246V509.5h64.637
		l75.391-131.065l53.577-30.675l28.213-52.612l-31.264-16.765l54.582-101.785C250.971,166.651,247.231,154.264,237.285,148.931z"/>
	<path style="fill:#FFC477;" d="M62.458,442.433c-28.928-13.895-44.923-47.294-47.043-89.325L0.5,377.246V509.5h64.637
		l34.926-60.718C86.773,449.975,74.042,447.997,62.458,442.433z"/>
	<g>
		<path d="M481.5,0h-450C16.336,0,4,12.336,4,27.5v228.043h15V27.5C19,20.607,24.607,15,31.5,15h450c6.893,0,12.5,5.607,12.5,12.5
			V294H252.953v15H494v54.5c0,6.893-5.607,12.5-12.5,12.5H314H199h-6.939v15H199v36.445c0,14.153-9.649,26.183-23.466,29.253
			C162.855,459.516,154,470.555,154,483.543V505h205v-21.457c0-12.988-8.855-24.027-21.534-26.845
			c-13.816-3.07-23.466-15.1-23.466-29.253V391h167.5c15.164,0,27.5-12.336,27.5-27.5V294V27.5C509,12.336,496.664,0,481.5,0z
			 M334.212,471.341c5.763,1.28,9.788,6.298,9.788,12.202V490H169v-6.457c0-5.904,4.025-10.922,9.788-12.202
			C199.521,466.733,214,448.683,214,427.445V391h85v36.445C299,448.683,313.479,466.733,334.212,471.341z"/>
		<path d="M232.473,292.083l-31.264-16.766l51.037-95.175c7.28-13.575,2.158-30.541-11.417-37.821
			c-13.579-7.282-30.546-2.159-37.825,11.415l-21.522,40.134l-28.832-15.461l-3.907,7.288l-0.433,0.807l-28.84-15.466l-8.682,16.188
			l-28.831-15.461l-48.961,91.302l-5.493,56.207L2.12,360.355l12.76,7.885l27.213-44.042l5.54-56.686l40.455-75.438l15.613,8.372
			l-13.818,25.767l13.219,7.088l13.817-25.767h0l8.682-16.188l15.62,8.376l-22.499,41.957l13.219,7.088l22.499-41.956l0.001,0.001
			l4.34-8.095l15.613,8.372l-26.839,50.051l13.219,7.088l26.839-50.05l0.001,0l28.61-53.354c3.37-6.286,11.231-8.656,17.518-5.285
			s8.658,11.228,5.287,17.514L180.9,281.448l31.264,16.766l-23.651,44.106l-53.463,30.608L61.011,500.74l12.979,7.52l72.017-124.319
			l53.692-30.739L232.473,292.083z"/>
		<path d="M165.458,174.31l14.264-4.641c-9.466-29.102,6.508-60.479,35.609-69.947c29.102-9.465,60.48,6.508,69.947,35.609
			c9.466,29.102-6.508,60.479-35.609,69.947l4.641,14.264c36.966-12.025,57.258-51.884,45.232-88.852
			c-12.026-36.966-51.888-57.261-88.852-45.232C173.725,97.483,153.433,137.342,165.458,174.31z"/>
		<path d="M337.978,154.653l-14.996-0.301c-0.093,4.623-0.539,9.257-1.325,13.773l14.777,2.574
			C337.351,165.434,337.87,160.035,337.978,154.653z"/>
		<path d="M295.166,217.794l10.387,10.822c3.873-3.718,7.489-7.761,10.749-12.019l-11.908-9.119
			C301.595,211.132,298.49,214.604,295.166,217.794z"/>
		<path d="M266.334,52.544l-4.809,14.209c4.357,1.475,8.639,3.301,12.726,5.43l6.93-13.303
			C276.414,56.396,271.418,54.265,266.334,52.544z"/>
		<path d="M332.104,187.354l-14.158-4.954c-1.52,4.345-3.391,8.606-5.561,12.668l13.23,7.068
			C328.148,197.396,330.331,192.423,332.104,187.354z"/>
		<path d="M216.431,48.218c-5.312,0.812-10.599,2.042-15.714,3.656l4.514,14.305c4.384-1.384,8.914-2.438,13.466-3.133
			L216.431,48.218z"/>
		<path d="M233.578,47.005l-0.15,15c4.625,0.046,9.265,0.444,13.789,1.184l2.42-14.803C244.363,47.523,238.961,47.06,233.578,47.005
			z"/>
		<path d="M184.787,58.382c-4.776,2.427-9.41,5.245-13.773,8.379l8.75,12.184c3.744-2.689,7.72-5.107,11.816-7.188L184.787,58.382z"
			/>
		<path d="M319.096,126.113c1.338,4.398,2.346,8.939,2.994,13.496l14.85-2.111c-0.756-5.318-1.932-10.618-3.494-15.752
			L319.096,126.113z"/>
		<path d="M246.436,257.087c5.326-0.703,10.637-1.824,15.784-3.333l-4.217-14.395c-4.413,1.293-8.965,2.254-13.53,2.856
			L246.436,257.087z"/>
		<path d="M147.405,90.126l12.092,8.877c2.725-3.713,5.759-7.246,9.017-10.502L157.91,77.892
			C154.114,81.685,150.58,85.802,147.405,90.126z"/>
		<path d="M127,152.5h15c0-4.624,0.352-9.268,1.046-13.804l-14.828-2.268C127.41,141.712,127,147.119,127,152.5z"/>
		<path d="M132.203,119.69l14.258,4.662c1.43-4.374,3.212-8.674,5.298-12.78l-13.373-6.793
			C135.952,109.57,133.872,114.588,132.203,119.69z"/>
		<path d="M306.592,100.519c2.65,3.769,5.027,7.769,7.066,11.888l13.443-6.656c-2.378-4.803-5.15-9.465-8.238-13.858
			L306.592,100.519z"/>
		<path d="M278.281,247.573c4.825-2.327,9.517-5.051,13.942-8.095l-8.5-12.359c-3.798,2.612-7.82,4.948-11.958,6.944
			L278.281,247.573z"/>
		<path d="M286.741,80.049c3.684,2.762,7.187,5.831,10.409,9.122l10.717-10.496c-3.755-3.834-7.836-7.409-12.128-10.628
			L286.741,80.049z"/>
	</g>
</g>
<g>
</g>
<g>
</g>
<g>
</g>
<g>
</g>
<g>
</g>
<g>
</g>
<g>
</g>
<g>
</g>
<g>
</g>
<g>
</g>
<g>
</g>
<g>
</g>
<g>
</g>
<g>
</g>
<g>
</g>
</svg>
