<?xml version="1.0" encoding="iso-8859-1"?>
<!-- Generator: Adobe Illustrator 19.0.0, SVG Export Plug-In . SVG Version: 6.00 Build 0)  -->
<svg version="1.1" id="Layer_1" xmlns="http://www.w3.org/2000/svg" xmlns:xlink="http://www.w3.org/1999/xlink" x="0px" y="0px"
	 viewBox="0 0 505 505" style="enable-background:new 0 0 505 505;" xml:space="preserve">
<g>
	<rect x="7.5" y="42.5" width="490" height="420"/>
	<rect x="7.5" y="42.5" style="fill:#FDD93B;" width="490" height="60"/>
	<polygon style="fill:#FFFFFF;" points="497.5,462.5 7.5,462.5 7.5,102.5 347.5,102.5 377.5,42.5 497.5,42.5 	"/>
	<polygon style="fill:#D8D7DA;" points="377.5,42.5 347.5,102.5 217.5,102.5 247.5,42.5 	"/>
	<polygon style="fill:#ACABB1;" points="352.5,42.5 322.5,102.5 347.5,102.5 377.5,42.5 	"/>
	<polygon style="fill:#F5A800;" points="221.5,42.5 191.5,102.5 217.5,102.5 247.5,42.5 	"/>
	<rect x="7.5" y="442.5" style="fill:#D8D7DA;" width="490" height="20"/>
	<g>
		<rect x="82.5" y="149.5" style="fill:#D8D7DA;" width="340" height="160"/>
		<rect x="102.5" y="169.5" style="fill:#60DC4D;" width="300" height="120"/>
		<polygon style="fill:#00C37A;" points="402.5,289.5 102.5,289.5 102.5,269.5 402.5,169.5 		"/>
	</g>
	<path style="fill:#FFFFFF;" d="M221.5,204h-15v-15h15V204z M191.5,204h-70v-15h70V204z"/>
	<g>
		<rect x="62.5" y="65" width="15" height="15"/>
		<rect x="92.5" y="65" width="15" height="15"/>
		<rect x="32.5" y="65" width="15" height="15"/>
		<rect x="318.5" y="65" width="15" height="15"/>
		<rect x="459.5" y="65" width="15" height="15"/>
		<path d="M372.865,35H0v60v375h505V35H372.865z M365.365,50l-22.5,45H229.635l22.5-45H365.365z M15,50h220.365l-22.5,45H15V50z
			 M490,455H15V110h337.135l30-60H490V455z"/>
		<path d="M95,297h315V162H95V297z M110,177h285v105H110V177z"/>
		<rect x="152.5" y="343" width="200" height="15"/>
		<rect x="192.5" y="379" width="120" height="15"/>
	</g>
</g>
<g>
</g>
<g>
</g>
<g>
</g>
<g>
</g>
<g>
</g>
<g>
</g>
<g>
</g>
<g>
</g>
<g>
</g>
<g>
</g>
<g>
</g>
<g>
</g>
<g>
</g>
<g>
</g>
<g>
</g>
</svg>
