<?xml version="1.0" encoding="iso-8859-1"?>
<!-- Generator: Adobe Illustrator 19.0.0, SVG Export Plug-In . SVG Version: 6.00 Build 0)  -->
<svg version="1.1" id="Layer_1" xmlns="http://www.w3.org/2000/svg" xmlns:xlink="http://www.w3.org/1999/xlink" x="0px" y="0px"
	 viewBox="0 0 490 490" style="enable-background:new 0 0 490 490;" xml:space="preserve">
<g>
	<circle style="fill:#E2324E;" cx="245" cy="245" r="120"/>
	<path style="fill:#A00B3F;" d="M365,245c0,66.27-53.73,120-120,120s-120-53.73-120-120c0-3.37,0.14-6.71,0.42-10
		c5.07,61.59,56.68,110,119.58,110s114.51-48.41,119.58-110C364.86,238.29,365,241.63,365,245z"/>
	<path style="fill:#FFFFFF;" d="M165.625,219.66l-14.223-4.766c2.353-7.02,5.512-13.769,9.391-20.061l12.769,7.871
		C170.284,208.022,167.614,213.727,165.625,219.66z M181.714,191.666l-11.281-9.887c15.677-17.888,37.25-29.428,60.744-32.493
		l1.941,14.873C213.242,166.754,194.986,176.522,181.714,191.666z"/>
	<g>
		<path d="M245,117.5c-70.304,0-127.5,57.196-127.5,127.5S174.696,372.5,245,372.5S372.5,315.304,372.5,245S315.304,117.5,245,117.5
			z M245,357.5c-62.033,0-112.5-50.468-112.5-112.5S182.967,132.5,245,132.5S357.5,182.968,357.5,245S307.033,357.5,245,357.5z"/>
		<rect x="237.5" y="60" width="15" height="15"/>
		<rect x="237.5" width="15" height="15"/>
		<rect x="237.5" y="30" width="15" height="15"/>
		<rect x="237.5" y="415" width="15" height="15"/>
		<rect x="237.5" y="445" width="15" height="15"/>
		<rect x="237.5" y="475" width="15" height="15"/>
		<rect x="363.011" y="111.989" transform="matrix(0.7071 0.7071 -0.7071 0.7071 193.0275 -227.0017)" width="15" height="15"/>
		<rect x="384.224" y="90.776" transform="matrix(-0.7071 -0.7071 0.7071 -0.7071 599.2083 444.7681)" width="15" height="15"/>
		<rect x="405.438" y="69.562" transform="matrix(0.7071 0.7071 -0.7071 0.7071 175.4537 -269.4311)" width="15" height="15"/>
		<rect x="90.775" y="384.225" transform="matrix(-0.7071 -0.7071 0.7071 -0.7071 -109.2408 738.1982)" width="15" height="15"/>
		<rect x="111.988" y="363.011" transform="matrix(-0.7071 -0.7071 0.7071 -0.7071 -58.0273 716.9852)" width="15" height="15"/>
		<rect x="69.562" y="405.438" transform="matrix(-0.7071 -0.7071 0.7071 -0.7071 -160.4541 759.4094)" width="15" height="15"/>
		<rect x="69.562" y="69.562" transform="matrix(0.7071 0.7071 -0.7071 0.7071 77.0596 -31.9203)" width="15" height="15"/>
		<rect x="90.775" y="90.776" transform="matrix(-0.7071 0.7071 -0.7071 -0.7071 237.2581 98.2698)" width="15" height="15"/>
		<rect x="111.989" y="111.989" transform="matrix(0.7071 0.7071 -0.7071 0.7071 119.4888 -49.4939)" width="15" height="15"/>
		<rect x="363.011" y="363.011" transform="matrix(0.7071 -0.7071 0.7071 0.7071 -153.4707 370.5355)" width="15" height="15"/>
		<rect x="384.225" y="384.225" transform="matrix(-0.7071 -0.7071 0.7071 -0.7071 391.7243 945.7077)" width="15" height="15"/>
		<rect x="405.438" y="405.438" transform="matrix(-0.7071 -0.7071 0.7071 -0.7071 412.938 996.9205)" width="15" height="15"/>
		<rect y="237.5" width="15" height="15"/>
		<rect x="60" y="237.5" width="15" height="15"/>
		<rect x="30" y="237.5" width="15" height="15"/>
		<rect x="475" y="237.5" width="15" height="15"/>
		<rect x="445" y="237.5" width="15" height="15"/>
		<rect x="415" y="237.5" width="15" height="15"/>
	</g>
</g>
<g>
</g>
<g>
</g>
<g>
</g>
<g>
</g>
<g>
</g>
<g>
</g>
<g>
</g>
<g>
</g>
<g>
</g>
<g>
</g>
<g>
</g>
<g>
</g>
<g>
</g>
<g>
</g>
<g>
</g>
</svg>
