<?xml version="1.0" encoding="iso-8859-1"?>
<!-- Generator: Adobe Illustrator 19.0.0, SVG Export Plug-In . SVG Version: 6.00 Build 0)  -->
<svg version="1.1" id="Layer_1" xmlns="http://www.w3.org/2000/svg" xmlns:xlink="http://www.w3.org/1999/xlink" x="0px" y="0px"
	 viewBox="0 0 505 505" style="enable-background:new 0 0 505 505;" xml:space="preserve">
<g>
	<path style="fill:#D8D7DA;" d="M446.5,202.5v100h41c5.523,0,10-4.477,10-10v-80c0-5.523-4.477-10-10-10H446.5z"/>
	<rect x="7.5" y="132.5" style="fill:#FFFFFF;" width="409" height="240"/>
	<rect x="7.5" y="352.5" style="fill:#D8D7DA;" width="409" height="20"/>
	<rect x="47.5" y="172.5" style="fill:#60DC4D;" width="60" height="160"/>
	<rect x="147.5" y="172.5" style="fill:#60DC4D;" width="60" height="160"/>
	<rect x="247.5" y="172.5" style="fill:#60DC4D;" width="60" height="160"/>
	<path d="M395,252.5h-15v-15h15V252.5z M395,222.5h-15v-70h15V222.5z"/>
	<rect x="47.5" y="312.5" style="fill:#00C37A;" width="60" height="20"/>
	<rect x="147.5" y="312.5" style="fill:#00C37A;" width="60" height="20"/>
	<rect x="247.5" y="312.5" style="fill:#00C37A;" width="60" height="20"/>
	<path style="fill:#ACABB1;" d="M497.5,292.5v-10h-51v20h41C493.023,302.5,497.5,298.023,497.5,292.5z"/>
	<g>
		<path d="M0,380h424V125H0V380z M15,140h394v225H15V140z"/>
		<path d="M487.5,195h-20v15h20c1.379,0,2.5,1.121,2.5,2.5v80c0,1.379-1.121,2.5-2.5,2.5h-20v15h20c9.649,0,17.5-7.851,17.5-17.5
			v-80C505,202.851,497.149,195,487.5,195z"/>
		<rect x="439" y="132.5" width="15" height="240"/>
		<path d="M40,340h75V165H40V340z M55,180h45v145H55V180z"/>
		<rect x="70" y="245" width="15" height="15"/>
		<rect x="70" y="275" width="15" height="15"/>
		<rect x="70" y="215" width="15" height="15"/>
		<path d="M140,340h75V165h-75V340z M155,180h45v145h-45V180z"/>
		<rect x="170" y="275" width="15" height="15"/>
		<rect x="170" y="245" width="15" height="15"/>
		<rect x="170" y="215" width="15" height="15"/>
		<path d="M240,340h75V165h-75V340z M255,180h45v145h-45V180z"/>
		<rect x="270" y="215" width="15" height="15"/>
		<rect x="270" y="275" width="15" height="15"/>
		<rect x="270" y="245" width="15" height="15"/>
	</g>
</g>
<g>
</g>
<g>
</g>
<g>
</g>
<g>
</g>
<g>
</g>
<g>
</g>
<g>
</g>
<g>
</g>
<g>
</g>
<g>
</g>
<g>
</g>
<g>
</g>
<g>
</g>
<g>
</g>
<g>
</g>
</svg>
