<?xml version="1.0" encoding="iso-8859-1"?>
<!-- Generator: Adobe Illustrator 19.0.0, SVG Export Plug-In . SVG Version: 6.00 Build 0)  -->
<svg version="1.1" id="Layer_1" xmlns="http://www.w3.org/2000/svg" xmlns:xlink="http://www.w3.org/1999/xlink" x="0px" y="0px"
	 viewBox="0 0 505 505" style="enable-background:new 0 0 505 505;" xml:space="preserve">
<rect x="223" y="477.5" style="fill:#0053C0;" width="60" height="20"/>
<g>
	<path style="fill:#D8D7DA;" d="M252.5,282.5c-7.838,0-15.52-0.666-23-1.926V337.5h40v-56.046
		C263.929,282.141,258.257,282.5,252.5,282.5z"/>
	<rect x="219.5" y="338.5" style="fill:#077FD5;" width="60" height="159"/>
	<path style="fill:#ACABB1;" d="M229.5,280.574v20.241c7.51,1.104,15.188,1.684,23,1.684c5.744,0,11.414-0.318,17-0.92v-20.126
		c-5.571,0.687-11.243,1.046-17,1.046C244.662,282.5,236.98,281.834,229.5,280.574z"/>
	<circle style="fill:#077FD5;" cx="252.5" cy="145" r="137.5"/>
	<circle style="fill:#00C6DA;" cx="252.5" cy="145" r="100"/>
	<path style="fill:#00E2F0;" d="M252.5,225c-44.112,0-80-35.888-80-80s35.888-80,80-80s80,35.888,80,80S296.612,225,252.5,225z"/>
	<path style="fill:#FFFFFF;" d="M190,145.001l-15-0.002c0.001-6.289,0.762-12.549,2.26-18.606l14.561,3.602
		C190.613,134.875,190.001,139.925,190,145.001z M196.404,117.455l-13.453-6.637C196.133,84.099,222.782,67.5,252.5,67.5v15
		C228.534,82.5,207.04,95.894,196.404,117.455z"/>
	<g>
		<rect x="383" y="137.5" width="15" height="15"/>
		<rect x="443" y="137.5" width="15" height="15"/>
		<rect x="413" y="137.5" width="15" height="15"/>
		<rect x="47" y="137.5" width="15" height="15"/>
		<rect x="107" y="137.5" width="15" height="15"/>
		<rect x="77" y="137.5" width="15" height="15"/>
		<path d="M252.5,37.5C193.225,37.5,145,85.725,145,145s48.225,107.5,107.5,107.5S360,204.275,360,145S311.775,37.5,252.5,37.5z
			 M252.5,237.5c-51.005,0-92.5-41.495-92.5-92.5s41.495-92.5,92.5-92.5S345,93.995,345,145S303.505,237.5,252.5,237.5z"/>
		<path d="M252.5,15c64.43,0,118.436,46.12,128.414,109.663l14.818-2.326c-5.302-33.764-22.547-64.719-48.558-87.162
			C320.888,12.492,287.265,0,252.5,0c-34.764,0-68.387,12.492-94.675,35.175c-26.01,22.443-43.255,53.398-48.558,87.161
			l14.818,2.328C134.065,61.12,188.071,15,252.5,15z"/>
		<path d="M268.194,274.049c-3.006,0.361-6.019,0.623-9.033,0.776c-0.038,0.002-0.075,0.004-0.113,0.006
			c-1.538,0.077-3.076,0.125-4.614,0.148c-0.079,0.001-0.159,0.002-0.238,0.003c-3.059,0.04-6.114-0.029-9.161-0.201
			c-0.11-0.006-0.221-0.012-0.331-0.019c-1.486-0.088-2.971-0.201-4.452-0.34c-0.126-0.012-0.251-0.026-0.377-0.038
			c-1.425-0.137-2.846-0.297-4.264-0.481c-0.087-0.011-0.174-0.021-0.26-0.032c-1.345-0.177-2.685-0.383-4.022-0.602
			c-53.15-8.741-96.405-49.854-106.588-104.151l-14.742,2.766c10.916,58.206,55.898,102.832,112.001,114.88V331h-10v174h75V331h-10
			v-43.081c58.875-10.06,106.698-55.769,118.001-116.036l-14.742-2.766C369.728,225.267,323.829,267.319,268.194,274.049z M272,490
			h-45V346h45V490z M262,330h-25v-40.827c0.225,0.024,0.45,0.042,0.675,0.065c0.771,0.079,1.542,0.156,2.316,0.222
			c0.258,0.022,0.516,0.039,0.774,0.06c0.783,0.063,1.567,0.125,2.353,0.176c0.307,0.02,0.613,0.033,0.92,0.051
			c0.735,0.043,1.47,0.086,2.208,0.117c0.4,0.017,0.801,0.026,1.201,0.04c0.65,0.022,1.299,0.048,1.95,0.062
			c0.478,0.01,0.955,0.01,1.433,0.016c0.557,0.006,1.112,0.019,1.67,0.019c0.029,0,0.057-0.001,0.085-0.001
			c0.159,0,0.319-0.005,0.479-0.005c2.998-0.011,5.978-0.112,8.936-0.305V330z"/>
		<polygon points="256.5,117 241.5,117 241.5,139.5 219,139.5 219,154.5 241.5,154.5 241.5,177 256.5,177 256.5,154.5 279,154.5 
			279,139.5 256.5,139.5 		"/>
	</g>
</g>
<g>
</g>
<g>
</g>
<g>
</g>
<g>
</g>
<g>
</g>
<g>
</g>
<g>
</g>
<g>
</g>
<g>
</g>
<g>
</g>
<g>
</g>
<g>
</g>
<g>
</g>
<g>
</g>
<g>
</g>
</svg>
