<?xml version="1.0" encoding="iso-8859-1"?>
<!-- Generator: Adobe Illustrator 19.0.0, SVG Export Plug-In . SVG Version: 6.00 Build 0)  -->
<svg version="1.1" id="Layer_1" xmlns="http://www.w3.org/2000/svg" xmlns:xlink="http://www.w3.org/1999/xlink" x="0px" y="0px"
	 viewBox="0 0 505 505" style="enable-background:new 0 0 505 505;" xml:space="preserve">
<path style="fill:#FFFFFF;" d="M476,249.5h-15v-15h15V249.5z M476,219.5h-15v-70h15V219.5z"/>
<g>
	<rect x="102.5" y="7.5" style="fill:#D8D7DA;" width="300" height="120"/>
	<rect x="7.5" y="127.5" style="fill:#077FD5;" width="490" height="250"/>
	<rect x="82.5" y="297.5" style="fill:#0053C0;" width="340" height="80"/>
	<rect x="102.5" y="317.5" style="fill:#FFFFFF;" width="300" height="180"/>
	<path style="fill:#0053C0;" d="M77.5,227.5c-22.056,0-40-17.944-40-40s17.944-40,40-40s40,17.944,40,40S99.556,227.5,77.5,227.5z"
		/>
	<circle style="fill:#E2324E;" cx="77.5" cy="187.5" r="20"/>
	<rect x="102.5" y="107.5" style="fill:#ACABB1;" width="300" height="20"/>
	<rect x="102.5" y="317.5" style="fill:#D8D7DA;" width="300" height="20"/>
	<g>
		<path d="M95,505h315V310H95V505z M110,325h285v165H110V325z"/>
		<path d="M410,120V0H95v120H0v265h77.5v-15H15V135h80h315h80v235h-62.5v15H505V120H410z M110,120V15h285v105H110z"/>
		<rect x="152.5" y="400" width="200" height="15"/>
		<rect x="152.5" y="360" width="200" height="15"/>
		<rect x="152.5" y="440" width="200" height="15"/>
		<path d="M105,187.5c0-15.163-12.336-27.5-27.5-27.5S50,172.337,50,187.5S62.336,215,77.5,215S105,202.663,105,187.5z M77.5,200
			c-6.893,0-12.5-5.607-12.5-12.5S70.607,175,77.5,175S90,180.607,90,187.5S84.393,200,77.5,200z"/>
		<rect x="245" y="220" width="15" height="15"/>
		<rect x="275" y="220" width="15" height="15"/>
		<rect x="215" y="220" width="15" height="15"/>
	</g>
</g>
<g>
</g>
<g>
</g>
<g>
</g>
<g>
</g>
<g>
</g>
<g>
</g>
<g>
</g>
<g>
</g>
<g>
</g>
<g>
</g>
<g>
</g>
<g>
</g>
<g>
</g>
<g>
</g>
<g>
</g>
</svg>
