<?xml version="1.0" encoding="iso-8859-1"?>
<!-- Generator: Adobe Illustrator 19.0.0, SVG Export Plug-In . SVG Version: 6.00 Build 0)  -->
<svg version="1.1" id="Layer_1" xmlns="http://www.w3.org/2000/svg" xmlns:xlink="http://www.w3.org/1999/xlink" x="0px" y="0px"
	 viewBox="0 0 505 505" style="enable-background:new 0 0 505 505;" xml:space="preserve">
<g>
	<polygon style="fill:#60DC4D;" points="497.5,365.739 397.5,365.739 332.5,435.739 267.5,365.739 7.5,365.739 7.5,65.739 
		497.5,65.739 	"/>
	<polygon style="fill:#00C37A;" points="332.5,405.739 277.5,345.739 7.5,345.739 7.5,365.739 267.5,365.739 332.5,435.739 
		397.5,365.739 497.5,365.739 497.5,345.739 387.5,345.739 	"/>
	<path style="fill:#FFFFFF;" d="M45,188.739H30v-15h15V188.739z M45,158.739H30v-70h15V158.739z"/>
	<g>
		<path d="M0,58.239v315h264.229l68.271,73.522l68.271-73.522H505v-315H0z M490,358.239h-95.771L332.5,424.716l-61.729-66.478H15
			v-285h475V358.239z"/>
		<rect x="65" y="178.239" width="375" height="15"/>
		<rect x="65" y="118.239" width="375" height="15"/>
		<rect x="65" y="238.239" width="375" height="15"/>
		<rect x="65" y="298.239" width="150.5" height="15"/>
		<rect x="260.5" y="298.239" width="15" height="15"/>
		<rect x="230.5" y="298.239" width="15" height="15"/>
		<rect x="290.5" y="298.239" width="15" height="15"/>
	</g>
</g>
<g>
</g>
<g>
</g>
<g>
</g>
<g>
</g>
<g>
</g>
<g>
</g>
<g>
</g>
<g>
</g>
<g>
</g>
<g>
</g>
<g>
</g>
<g>
</g>
<g>
</g>
<g>
</g>
<g>
</g>
</svg>
